<svg xmlns="http://www.w3.org/2000/svg" viewBox="0 0 100.61 100.62">
  <defs/>
  <defs/>
  <g id="kontakt">
    <path d="M71.12 68.87a7.59 7.59 0 00-10.71 0l-6.69 6.68c-4 .79-11.56-3.43-18.4-10.26s-11-14.42-10.26-18.4l6.69-6.68a7.58 7.58 0 000-10.72l-7.16-7.16a7.77 7.77 0 00-10.72 0l-7.16 7.16C-7.42 43.63 2.84 66.76 18.34 82.26c10.34 10.35 24.07 18.35 36.27 18.35a22.57 22.57 0 0016.51-6.71l7.16-7.16a7.59 7.59 0 000-10.71zm3.61 14.32l-7.16 7.16C56.39 101.51 36.13 93 21.9 78.71 14.22 71 8.69 62.32 6.32 54.17 4.55 48.1 3.8 39.51 10.27 33.05l7.16-7.16a2.53 2.53 0 013.6 0l7.16 7.16a2.54 2.54 0 010 3.6L21 43.81a2.55 2.55 0 00-.6 1c-2.35 7 4.32 17 11.34 24.05s17 13.68 24.05 11.35a2.39 2.39 0 001-.61L64 72.42a2.57 2.57 0 013.61 0l7.15 7.16a2.56 2.56 0 010 3.61zM93.07 0H52.84a7.55 7.55 0 00-7.54 7.54v25.14a7.55 7.55 0 007.54 7.55H62.9v7.54a2.52 2.52 0 004.09 2l11.88-9.5h14.2a7.55 7.55 0 007.54-7.55V7.54A7.55 7.55 0 0093.07 0zm2.52 32.69a2.53 2.53 0 01-2.52 2.51H78a2.53 2.53 0 00-1.58.55l-8.48 6.79v-4.83a2.51 2.51 0 00-2.51-2.51H52.84a2.52 2.52 0 01-2.51-2.51V7.54A2.52 2.52 0 0152.84 5h40.23a2.53 2.53 0 012.52 2.51z" class="cls-1"/>
  </g>
</svg>
