<?xml version="1.0" encoding="UTF-8"?>
<!DOCTYPE svg PUBLIC "-//W3C//DTD SVG 1.1//EN" "http://www.w3.org/Graphics/SVG/1.1/DTD/svg11.dtd">
<!-- Creator: CorelDRAW 2020 (64-Bit) -->
<svg xmlns="http://www.w3.org/2000/svg" xml:space="preserve" width="325.986mm" height="224.071mm" version="1.1" style="shape-rendering:geometricPrecision; text-rendering:geometricPrecision; image-rendering:optimizeQuality; fill-rule:evenodd; clip-rule:evenodd"
viewBox="0 0 4050.8 2784.38"
 xmlns:xlink="http://www.w3.org/1999/xlink"
 xmlns:xodm="http://www.corel.com/coreldraw/odm/2003">
 <defs>
  <style type="text/css">
   <![CDATA[
    .fil1 {fill:white;fill-rule:nonzero}
    .fil0 {fill:black;fill-rule:nonzero;fill-opacity:0.149020}
   ]]>
  </style>
 </defs>
 <g id="Warstwa_x0020_1">
  <metadata id="CorelCorpID_0Corel-Layer"/>
  <g id="_2397927964688">
   <path class="fil0" d="M1725.82 1011.47l98.13 -66.16 19.35 -17.17c343.48,-290.72 633.27,-410.65 869.56,-360.67 3.54,0.75 9.04,0.99 16.49,0.71 7.45,-0.27 12.95,-0.04 16.49,0.71l119 36.26 28.08 59.57 68.26 -12.38c67.18,53.96 126.71,109.09 175.95,164.8 49.24,55.72 90.14,111.52 121.44,168.99l22.5 99.07 -38.41 24.24 -52.45 -5.55c-8.47,-3.64 -17.84,-7.47 -26.82,-13.07 -61.51,-37.05 -107.94,-57.96 -140.68,-64.89l-18.58 -3.93 -194.75 -36.56 -69.92 -14.79 -27.79 26.48c-69.78,-11.06 -145.63,-2.14 -227.37,25.88 -81.55,27.13 -206.66,94.06 -375.12,199.89l-36.28 -7.67 -6.55 30.98 -100.07 49.1 81.61 112.49 -2.04 88.33 49.97 21.66 124.98 121.66 31.74 33.52 67.67 25.4 1.5 41c0,0 7.73,7.18 23.37,20.66 97.71,84.46 197.28,177.64 300.28,280.78l90.67 95.91 48.62 14.91c41.43,40.2 88.54,79.75 138.49,118.97 49.95,39.23 108.38,82.09 174.77,126.65l33.92 45.08 61.54 1.92c4.94,2.89 10.06,4.9 15.18,6.91 5.12,2.01 12.9,4.58 25.29,7.2 52.21,11.04 103.71,-9.5 154.31,-60.75 50.78,-52.13 91.52,-126.73 123.29,-224.49l1.41 -111.58 11.98 -56.64c17.97,-84.96 27.65,-174.45 28.34,-269.53 1.58,-94.9 -5.97,-199.12 -21.75,-312.48l-28.46 -57.79c2.11,-62.42 -2.73,-122.62 -14.32,-181.47 -11.78,-57.97 -33.3,-117.99 -63.85,-179l79.1 -142.3 88.09 7.54c32.25,35.48 57.29,65.74 74.92,91.66 17.82,25.03 34.57,50.77 48.85,75.05l63.69 48.6 15.18 54.99c47.96,74.86 110.07,218.36 189.17,430.18 23.93,66.08 42.52,118.09 56.84,155.33 -2.33,50.36 -1.44,98.63 -0.18,145.12 2.14,46.68 5.37,92.67 10.35,139.03l-45.39 61.59 5.33 127.8c-81.12,213.06 -224.8,372.22 -431.94,477.27 -206.25,105.24 -430.45,133.64 -671.55,84.5l-58.58 -29.03 -34.34 9.38c-142.6,-51.42 -274.39,-119.05 -395.02,-200.04 -121.33,-82.06 -235.19,-181.96 -341.4,-300.57l-142.92 -167.99 -125.33 -137.46 -76.78 -100.37c-9.63,-11.28 -40.68,-43.74 -91.55,-96.1 -51.76,-52.55 -92.43,-96.29 -122.92,-131.4l-45.49 22.74c-318.16,166.63 -546.18,234.9 -685.12,205.52 -32.75,-6.93 -105.54,-34.34 -217.68,-81.17l-18.02 -6.59 -114.42 -97.24 -52.91 -60.19 -64.74 -65.47c-82.35,-174.59 -139.59,-341.1 -172.8,-498.83 -32.33,-157.54 -37.61,-289.95 -15.34,-395.26 5.43,-25.67 14.31,-58.92 26.65,-99.77 12.34,-40.85 27.38,-85.74 44.24,-134.88l73.84 -51.88 -6.57 -47.62c33.48,-27.13 69.42,-52.81 108.02,-77.93 38.6,-25.12 78.22,-46.33 117.79,-62.93l42.04 32.93 61.13 -57.34c28.56,0.49 48.78,1.07 61.35,2.8 12.58,1.74 24.08,4.17 36.47,6.79 262.84,55.59 583.54,318.5 962.1,788.73l66.87 81.64zm-445.49 274.69l-96.79 -167.48 -173.65 -180.04 -212.38 -272.36 -62.12 -29.78 -45.9 -36.52 -111.92 -34.76c-26.79,-0.12 -49.9,4.24 -69.52,13.96 -18.55,9.02 -37.52,24.42 -56.93,46.21l-58.34 109.71c-4.58,12.9 -9.16,25.8 -12.66,38 -3.32,11.32 -5.94,23.71 -8.56,36.1 -6.55,30.98 -5.05,71.97 3.61,122.81 9.55,51.02 26.4,115.61 51.25,194.83l73.94 148.78c52.13,50.78 102.08,90.01 148.27,116.42 46.89,27.48 96.53,46.3 147.86,57.16 67.26,14.22 138.64,8.98 213.25,-15.92 74.61,-24.9 165.45,-74.11 270.58,-147.11z"/>
   <path class="fil1" d="M1607.46 879.96l98.13 -66.16 19.35 -17.17c343.48,-290.72 633.27,-410.65 869.56,-360.67 3.54,0.75 9.04,0.99 16.49,0.71 7.45,-0.27 12.95,-0.04 16.49,0.71l119 36.26 28.08 59.57 68.26 -12.38c67.18,53.96 126.71,109.09 175.95,164.8 49.24,55.72 90.14,111.52 121.44,168.99l22.5 99.07 -38.41 24.24 -52.45 -5.55c-8.48,-3.64 -17.84,-7.47 -26.82,-13.07 -61.51,-37.05 -107.94,-57.96 -140.68,-64.89l-18.58 -3.93 -194.75 -36.56 -69.92 -14.79 -27.79 26.48c-69.78,-11.06 -145.63,-2.14 -227.37,25.88 -81.55,27.13 -206.66,94.06 -375.12,199.89l-36.28 -7.67 -6.55 30.98 -100.07 49.1 81.61 112.49 -2.04 88.33 49.97 21.66 124.98 121.66 31.74 33.52 67.67 25.4 1.5 41c0,0 7.73,7.18 23.37,20.66 97.71,84.46 197.28,177.64 300.28,280.78l90.66 95.91 48.62 14.91c41.43,40.2 88.54,79.75 138.49,118.97 49.95,39.23 108.38,82.1 174.77,126.65l33.92 45.08 61.54 1.92c4.94,2.89 10.06,4.9 15.18,6.91 5.12,2.01 12.9,4.58 25.29,7.2 52.22,11.04 103.71,-9.5 154.31,-60.75 50.78,-52.13 91.52,-126.73 123.29,-224.49l1.41 -111.58 11.98 -56.64c17.97,-84.96 27.65,-174.44 28.34,-269.53 1.58,-94.9 -5.97,-199.12 -21.75,-312.48l-28.46 -57.79c2.11,-62.42 -2.73,-122.62 -14.32,-181.47 -11.78,-57.97 -33.3,-117.99 -63.85,-179l79.1 -142.3 88.09 7.54c32.25,35.48 57.29,65.74 74.92,91.66 17.82,25.03 34.57,50.77 48.85,75.05l63.69 48.6 15.18 54.99c47.96,74.86 110.07,218.36 189.17,430.18 23.93,66.08 42.52,118.09 56.83,155.33 -2.33,50.36 -1.44,98.63 -0.18,145.12 2.14,46.68 5.37,92.67 10.35,139.03l-45.39 61.59 5.33 127.8c-81.12,213.06 -224.8,372.22 -431.94,477.27 -206.25,105.24 -430.45,133.64 -671.55,84.5l-58.58 -29.03 -34.34 9.38c-142.6,-51.42 -274.39,-119.05 -395.02,-200.04 -121.33,-82.06 -235.19,-181.96 -341.4,-300.57l-142.92 -167.99 -125.33 -137.46 -76.78 -100.37c-9.63,-11.28 -40.68,-43.74 -91.55,-96.1 -51.76,-52.55 -92.43,-96.29 -122.92,-131.4l-45.49 22.74c-318.16,166.63 -546.18,234.9 -685.12,205.52 -32.75,-6.93 -105.54,-34.34 -217.68,-81.17l-18.02 -6.59 -114.42 -97.24 -52.91 -60.19 -64.74 -65.47c-82.35,-174.59 -139.59,-341.1 -172.8,-498.83 -32.33,-157.54 -37.61,-289.95 -15.34,-395.26 5.43,-25.67 14.31,-58.92 26.65,-99.77 12.34,-40.85 27.38,-85.74 44.24,-134.88l73.84 -51.88 -6.57 -47.62c33.48,-27.13 69.42,-52.81 108.02,-77.93 38.6,-25.12 78.22,-46.33 117.79,-62.93l42.04 32.93 61.13 -57.34c28.56,0.49 48.78,1.07 61.35,2.8 12.58,1.74 24.08,4.17 36.47,6.79 262.84,55.59 583.54,318.5 962.1,788.73l66.87 81.64zm-445.49 274.69l-96.79 -167.48 -173.65 -180.04 -212.37 -272.36 -62.12 -29.78 -45.9 -36.52 -111.92 -34.76c-26.79,-0.12 -49.9,4.24 -69.52,13.96 -18.55,9.02 -37.52,24.42 -56.93,46.21l-58.34 109.71c-4.58,12.9 -9.16,25.8 -12.66,38 -3.32,11.32 -5.94,23.71 -8.56,36.1 -6.55,30.98 -5.05,71.97 3.61,122.81 9.55,51.02 26.4,115.61 51.25,194.83l73.94 148.78c52.13,50.78 102.08,90.01 148.27,116.42 46.89,27.48 96.53,46.3 147.86,57.16 67.26,14.22 138.64,8.98 213.25,-15.92 74.61,-24.9 165.45,-74.11 270.58,-147.11z"/>
  </g>
 </g>
</svg>
