<svg id="svg" version="1.1" xmlns="http://www.w3.org/2000/svg" xmlns:xlink="http://www.w3.org/1999/xlink" width="400" height="279.3791574279379" viewBox="0, 0, 400,279.3791574279379"><g id="svgg"><path id="path0" d="M47.892 0.699 C 47.918 0.853,47.781 0.947,47.589 0.908 C 47.397 0.870,47.240 1.027,47.240 1.258 C 47.240 1.488,47.145 1.657,47.030 1.633 C 46.619 1.546,45.848 2.020,46.000 2.265 C 46.085 2.403,46.027 2.516,45.871 2.516 C 45.714 2.516,44.903 3.205,44.067 4.048 C 42.772 5.353,42.496 5.518,42.204 5.166 C 42.015 4.938,41.733 4.752,41.577 4.752 C 41.421 4.752,41.003 4.437,40.646 4.053 C 40.290 3.669,39.860 3.354,39.689 3.354 C 39.519 3.354,39.458 3.229,39.553 3.075 C 39.657 2.906,39.271 2.795,38.574 2.795 C 37.878 2.795,37.492 2.906,37.596 3.075 C 37.691 3.229,37.510 3.354,37.193 3.354 C 36.877 3.354,36.618 3.480,36.618 3.634 C 36.618 3.788,36.523 3.898,36.408 3.880 C 36.293 3.862,36.136 3.871,36.059 3.901 C 35.982 3.931,35.610 4.012,35.232 4.081 C 34.855 4.150,34.477 4.313,34.394 4.442 C 34.310 4.571,33.933 4.773,33.556 4.891 C 33.179 5.009,32.698 5.277,32.488 5.488 C 32.278 5.698,31.926 5.870,31.706 5.870 C 31.486 5.870,31.307 5.996,31.307 6.150 C 31.307 6.303,31.111 6.429,30.871 6.429 C 30.631 6.429,30.513 6.555,30.608 6.709 C 30.703 6.862,30.547 6.988,30.261 6.988 C 29.975 6.988,29.601 7.128,29.430 7.300 C 29.048 7.682,27.984 8.315,27.324 8.554 C 27.055 8.651,26.834 8.828,26.834 8.947 C 26.834 9.066,26.520 9.243,26.136 9.339 C 25.751 9.436,25.437 9.638,25.437 9.789 C 25.437 9.940,25.259 10.063,25.041 10.063 C 24.823 10.063,24.373 10.409,24.042 10.832 C 23.710 11.254,23.532 11.412,23.645 11.181 C 23.759 10.950,23.453 11.171,22.965 11.670 C 22.477 12.170,21.836 12.579,21.540 12.579 C 21.244 12.579,20.924 12.824,20.829 13.123 C 20.715 13.483,20.503 13.609,20.205 13.495 C 19.905 13.380,19.822 13.431,19.957 13.649 C 20.078 13.845,19.985 13.976,19.723 13.976 C 19.483 13.976,19.287 14.100,19.287 14.250 C 19.287 14.401,18.985 14.601,18.615 14.693 C 18.245 14.786,17.876 15.116,17.795 15.426 C 17.714 15.736,17.513 15.906,17.349 15.805 C 17.153 15.683,17.051 16.103,17.051 17.035 C 17.051 17.812,17.177 18.449,17.331 18.449 C 17.484 18.449,17.610 18.582,17.610 18.745 C 17.610 18.907,17.453 18.952,17.261 18.843 C 16.981 18.686,16.981 18.721,17.261 19.023 C 17.937 19.752,17.341 21.228,16.282 21.446 C 16.115 21.480,15.639 21.822,15.225 22.206 C 14.812 22.589,14.204 22.988,13.875 23.092 C 13.546 23.196,13.047 23.546,12.765 23.869 C 12.483 24.193,12.138 24.458,11.999 24.458 C 11.544 24.458,10.370 25.928,10.176 26.740 C 10.071 27.176,9.846 27.715,9.675 27.936 C 9.427 28.258,9.448 28.290,9.783 28.092 C 10.120 27.894,10.140 27.925,9.886 28.248 C 9.711 28.470,9.481 29.060,9.374 29.560 C 9.267 30.059,9.064 30.468,8.923 30.468 C 8.781 30.468,8.665 30.601,8.665 30.764 C 8.665 30.927,8.823 30.971,9.015 30.863 C 9.294 30.705,9.294 30.741,9.015 31.042 C 8.823 31.249,8.665 31.652,8.665 31.938 C 8.665 32.258,8.542 32.382,8.345 32.260 C 8.121 32.121,8.079 32.277,8.205 32.779 C 8.308 33.190,8.260 33.538,8.093 33.594 C 7.933 33.647,7.781 33.972,7.755 34.316 C 7.729 34.659,7.613 34.941,7.497 34.941 C 7.382 34.941,7.204 35.567,7.102 36.333 C 7.001 37.099,6.808 37.657,6.673 37.574 C 6.539 37.491,6.429 37.738,6.429 38.122 C 6.429 38.506,6.297 38.902,6.137 39.002 C 5.976 39.101,5.902 39.549,5.972 39.997 C 6.043 40.444,5.986 40.811,5.846 40.811 C 5.705 40.811,5.590 41.133,5.590 41.526 C 5.590 41.919,5.475 42.170,5.333 42.082 C 5.192 41.995,4.989 42.742,4.882 43.743 C 4.774 44.744,4.601 45.563,4.497 45.563 C 4.393 45.563,4.276 46.028,4.237 46.597 C 4.199 47.166,4.033 47.794,3.869 47.992 C 3.696 48.200,3.648 48.765,3.755 49.333 C 3.870 49.947,3.829 50.314,3.646 50.314 C 3.475 50.314,3.353 51.035,3.350 52.061 C 3.347 53.223,3.260 53.674,3.091 53.406 C 2.934 53.158,2.833 56.253,2.828 61.451 C 2.822 66.763,2.918 69.838,3.087 69.734 C 3.303 69.600,3.536 72.366,3.387 73.305 C 3.369 73.421,3.480 73.515,3.634 73.515 C 3.788 73.515,3.913 73.648,3.913 73.811 C 3.913 73.974,3.768 74.017,3.591 73.908 C 3.372 73.773,3.345 73.832,3.506 74.093 C 3.636 74.304,3.716 74.842,3.682 75.287 C 3.648 75.732,3.738 76.239,3.882 76.413 C 4.026 76.587,4.176 77.421,4.213 78.267 C 4.251 79.113,4.374 79.930,4.486 80.084 C 4.598 80.238,4.777 81.244,4.883 82.320 C 4.989 83.396,5.192 84.319,5.333 84.370 C 5.475 84.421,5.590 84.956,5.590 85.558 C 5.590 86.160,5.691 86.653,5.814 86.653 C 5.937 86.653,5.988 87.078,5.927 87.598 C 5.866 88.118,5.954 88.629,6.123 88.733 C 6.291 88.837,6.429 89.229,6.429 89.604 C 6.429 89.979,6.555 90.287,6.709 90.287 C 6.862 90.287,6.994 90.758,7.000 91.335 C 7.007 91.911,7.194 92.886,7.415 93.501 C 7.637 94.116,7.820 94.910,7.822 95.265 C 7.825 95.620,7.942 95.839,8.082 95.752 C 8.226 95.664,8.277 95.976,8.200 96.464 C 8.109 97.043,8.164 97.272,8.364 97.148 C 8.554 97.031,8.665 97.278,8.665 97.817 C 8.665 98.287,8.791 98.672,8.945 98.672 C 9.099 98.672,9.201 98.767,9.172 98.882 C 9.062 99.321,9.563 101.468,9.776 101.468 C 10.014 101.468,10.365 102.870,10.388 103.913 C 10.395 104.259,10.483 104.542,10.583 104.542 C 10.792 104.542,11.156 105.431,11.843 107.617 C 12.375 109.311,13.058 111.126,13.446 111.876 C 13.584 112.143,13.697 112.501,13.697 112.672 C 13.697 112.843,13.874 113.380,14.090 113.864 C 14.307 114.349,15.207 116.506,16.090 118.658 C 16.974 120.811,18.319 123.955,19.079 125.646 C 19.840 127.338,20.768 129.413,21.142 130.259 C 21.668 131.447,22.628 132.589,25.377 135.294 C 27.331 137.219,30.252 140.191,31.866 141.900 C 36.561 146.870,43.269 152.355,45.994 153.451 C 47.217 153.943,48.470 154.455,48.777 154.589 C 49.085 154.722,50.783 155.406,52.551 156.109 C 54.319 156.812,55.984 157.510,56.251 157.659 C 56.518 157.809,56.876 157.932,57.047 157.932 C 57.218 157.932,57.754 158.105,58.239 158.317 C 58.723 158.529,59.748 158.916,60.517 159.177 C 61.286 159.438,62.166 159.760,62.474 159.893 C 66.359 161.564,76.065 161.983,81.746 160.724 C 88.021 159.333,92.169 158.264,93.781 157.622 C 94.088 157.499,94.780 157.280,95.318 157.134 C 96.340 156.858,101.477 155.040,102.446 154.612 C 102.753 154.476,103.571 154.146,104.263 153.878 C 106.086 153.174,106.436 153.027,108.545 152.079 C 109.593 151.608,110.525 151.223,110.614 151.223 C 110.704 151.223,111.544 150.865,112.482 150.428 C 113.419 149.991,114.877 149.331,115.722 148.961 C 116.567 148.591,121.088 146.370,125.769 144.025 C 130.450 141.681,134.486 139.762,134.737 139.762 C 135.112 139.762,137.467 142.131,140.132 145.187 C 140.413 145.509,143.250 148.477,146.437 151.782 C 154.310 159.946,155.060 160.794,158.910 165.878 C 160.755 168.314,162.390 170.450,162.544 170.625 C 162.697 170.800,164.144 172.387,165.757 174.151 C 167.371 175.915,169.205 177.925,169.832 178.616 C 170.460 179.308,171.783 180.755,172.772 181.831 C 174.316 183.510,180.327 190.516,182.941 193.683 C 191.310 203.820,201.912 214.042,212.439 222.121 C 216.640 225.346,227.874 232.844,228.504 232.844 C 228.581 232.844,229.242 233.210,229.975 233.658 C 232.529 235.217,234.413 236.223,239.133 238.544 C 244.290 241.079,244.961 241.385,250.594 243.778 C 255.449 245.841,256.818 246.143,258.840 245.598 C 260.070 245.266,260.154 245.287,262.681 246.569 C 265.215 247.854,265.546 247.944,271.838 249.075 C 279.531 250.458,293.896 250.461,301.188 249.081 C 305.373 248.290,310.013 247.268,311.530 246.806 C 331.408 240.741,346.677 230.689,357.442 216.579 C 361.225 211.620,366.205 203.014,368.092 198.173 C 368.300 197.641,368.644 196.813,368.856 196.335 C 369.170 195.627,369.197 194.357,369.004 189.487 C 368.735 182.737,368.590 183.385,371.145 179.929 L 372.965 177.468 372.774 175.317 C 372.670 174.134,372.470 171.845,372.330 170.231 C 372.190 168.616,372.070 163.588,372.062 159.056 C 372.046 150.048,372.172 150.955,370.232 145.912 C 370.025 145.374,369.351 143.550,368.736 141.859 C 366.780 136.488,362.496 125.130,361.987 123.969 C 361.718 123.354,361.220 122.096,360.881 121.174 C 360.542 120.252,360.094 119.119,359.886 118.658 C 359.677 118.197,359.071 116.751,358.539 115.444 C 358.006 114.137,357.236 112.313,356.827 111.391 C 356.418 110.468,355.972 109.462,355.836 109.154 C 354.631 106.429,351.441 100.021,350.321 98.076 C 349.404 96.485,348.704 94.793,348.264 93.108 L 347.598 90.554 344.610 88.309 C 341.793 86.193,341.524 85.902,339.910 83.214 C 338.968 81.646,337.701 79.565,337.093 78.588 C 336.486 77.612,335.989 76.630,335.989 76.405 C 335.989 76.181,335.863 76.075,335.709 76.171 C 335.556 76.266,335.430 76.229,335.430 76.090 C 335.430 75.684,334.412 74.626,334.213 74.825 C 334.114 74.924,334.032 74.761,334.032 74.462 C 334.032 74.164,333.660 73.592,333.205 73.193 C 332.750 72.794,332.456 72.389,332.553 72.292 C 332.649 72.196,332.525 72.117,332.278 72.117 C 332.031 72.117,331.739 71.972,331.629 71.795 C 331.496 71.578,331.559 71.546,331.823 71.696 C 332.039 71.820,331.807 71.545,331.308 71.086 C 330.808 70.628,330.484 70.169,330.586 70.067 C 330.757 69.895,328.791 69.748,327.924 69.867 C 327.711 69.896,327.631 69.783,327.740 69.606 C 327.878 69.383,327.180 69.299,325.322 69.313 C 323.886 69.323,322.347 69.249,321.901 69.147 C 321.328 69.016,321.149 69.055,321.289 69.282 C 321.398 69.458,321.353 69.602,321.191 69.602 C 321.028 69.602,320.894 69.790,320.894 70.021 C 320.894 70.252,320.779 70.440,320.637 70.440 C 320.496 70.440,320.297 70.818,320.196 71.279 C 320.094 71.740,319.923 72.117,319.814 72.117 C 319.706 72.117,319.383 72.513,319.098 72.997 C 318.812 73.481,318.731 73.783,318.918 73.667 C 319.172 73.510,319.168 73.601,318.902 74.027 C 318.707 74.340,318.443 74.533,318.316 74.455 C 318.189 74.376,318.113 74.416,318.148 74.542 C 318.255 74.938,317.795 76.031,317.521 76.031 C 317.378 76.031,317.261 76.286,317.261 76.599 C 317.261 76.911,317.072 77.239,316.841 77.327 C 316.611 77.416,316.422 77.734,316.422 78.034 C 316.422 78.334,316.303 78.506,316.157 78.415 C 316.011 78.325,315.810 78.686,315.710 79.218 C 315.610 79.750,315.352 80.253,315.137 80.335 C 314.921 80.418,314.745 80.678,314.745 80.914 C 314.745 81.149,314.650 81.342,314.534 81.342 C 313.622 81.342,313.631 83.763,314.545 84.439 C 314.666 84.528,314.828 84.951,314.906 85.379 C 314.983 85.806,315.230 86.339,315.455 86.564 C 315.679 86.788,315.863 87.227,315.863 87.538 C 315.863 87.849,316.113 88.455,316.419 88.885 C 316.959 89.644,317.193 90.395,317.244 91.544 C 317.265 92.010,317.315 92.033,317.540 91.684 C 317.751 91.357,317.812 91.435,317.815 92.034 C 317.818 92.456,317.794 92.834,317.763 92.872 C 317.731 92.911,317.910 93.319,318.160 93.781 C 318.960 95.257,319.469 97.105,320.059 100.671 C 320.202 101.539,320.446 102.797,320.600 103.466 C 320.755 104.135,320.884 105.657,320.888 106.848 C 320.891 108.040,320.989 109.015,321.104 109.014 C 321.219 109.014,321.275 110.964,321.227 113.347 C 321.168 116.272,321.236 117.680,321.436 117.680 C 321.599 117.680,321.733 117.932,321.733 118.239 C 321.733 118.546,321.844 118.798,321.980 118.798 C 322.220 118.798,322.663 119.843,322.602 120.266 C 322.585 120.381,322.687 120.475,322.829 120.475 C 322.970 120.475,323.169 120.853,323.270 121.314 C 323.372 121.775,323.570 122.152,323.712 122.152 C 323.853 122.152,323.969 122.781,323.969 123.550 C 323.969 124.319,324.080 124.948,324.215 124.948 C 324.479 124.948,324.967 130.309,324.852 131.936 C 324.799 132.679,324.851 132.813,325.070 132.495 C 325.280 132.190,325.365 132.685,325.384 134.312 C 325.398 135.542,325.459 136.799,325.519 137.107 C 325.579 137.414,325.652 139.867,325.681 142.558 C 325.716 145.727,325.842 147.522,326.040 147.655 C 326.249 147.796,326.236 147.861,325.996 147.864 C 325.768 147.867,325.646 148.312,325.646 149.143 C 325.646 149.921,325.755 150.350,325.926 150.245 C 326.082 150.148,326.204 150.357,326.201 150.717 C 326.198 151.237,326.144 151.281,325.926 150.943 C 325.716 150.618,325.654 150.700,325.651 151.309 C 325.648 151.864,325.749 152.033,325.996 151.885 C 326.261 151.725,326.271 151.772,326.038 152.078 C 325.856 152.317,325.705 154.125,325.666 156.534 C 325.630 158.763,325.564 160.901,325.519 161.286 C 325.475 161.670,325.420 162.928,325.398 164.081 C 325.370 165.548,325.277 166.052,325.087 165.758 C 324.890 165.453,324.813 165.680,324.804 166.597 C 324.782 168.967,324.452 172.048,324.210 172.141 C 324.078 172.192,323.969 172.656,323.969 173.172 C 323.969 173.689,323.862 174.177,323.731 174.258 C 323.599 174.339,323.407 175.316,323.304 176.429 C 323.201 177.542,322.964 178.547,322.778 178.661 C 322.534 178.813,322.413 180.779,322.340 185.801 C 322.284 189.613,322.125 192.852,321.986 192.998 C 321.847 193.144,321.733 193.490,321.733 193.767 C 321.733 194.043,321.593 194.270,321.421 194.270 C 321.249 194.270,321.173 194.515,321.251 194.815 C 321.330 195.115,321.276 195.400,321.132 195.448 C 320.988 195.497,320.848 195.817,320.823 196.161 C 320.797 196.504,320.686 196.785,320.578 196.785 C 320.469 196.785,320.297 197.163,320.196 197.624 C 320.094 198.085,319.923 198.463,319.815 198.463 C 319.707 198.463,319.592 198.785,319.559 199.180 C 319.527 199.574,319.311 200.086,319.079 200.318 C 318.716 200.681,318.622 200.994,318.668 201.687 C 318.674 201.769,318.485 202.030,318.249 202.266 C 318.013 202.502,317.820 202.875,317.820 203.095 C 317.820 203.314,317.694 203.494,317.540 203.494 C 317.386 203.494,317.281 203.588,317.305 203.704 C 317.372 204.021,316.919 204.985,316.505 205.403 C 316.303 205.608,316.221 205.910,316.323 206.076 C 316.431 206.251,316.377 206.295,316.194 206.181 C 316.004 206.064,315.809 206.268,315.701 206.697 C 315.603 207.088,315.419 207.407,315.293 207.407 C 315.166 207.407,314.973 207.690,314.863 208.036 C 314.754 208.382,314.436 208.826,314.157 209.022 C 313.879 209.219,313.717 209.553,313.799 209.766 C 313.883 209.986,313.724 210.223,313.428 210.317 C 313.143 210.407,312.668 210.890,312.373 211.390 C 311.781 212.394,308.627 215.607,308.161 215.681 C 307.999 215.707,307.392 216.175,306.813 216.721 C 306.234 217.267,305.391 217.795,304.941 217.894 C 304.491 217.993,304.122 218.158,304.121 218.261 C 304.117 218.621,302.720 219.094,302.122 218.937 C 301.710 218.829,301.583 218.882,301.720 219.103 C 301.867 219.341,301.095 219.427,298.812 219.427 C 297.103 219.427,295.771 219.319,295.853 219.186 C 295.935 219.053,295.722 218.965,295.381 218.989 C 295.039 219.014,294.219 218.810,293.560 218.537 C 292.643 218.157,291.820 218.065,290.066 218.149 C 286.868 218.301,286.756 218.250,285.094 215.903 C 283.914 214.237,283.146 213.509,281.224 212.233 C 279.905 211.358,278.700 210.544,278.546 210.425 C 278.393 210.306,276.066 208.618,273.375 206.674 C 270.685 204.729,268.421 203.058,268.344 202.960 C 268.267 202.861,267.638 202.347,266.946 201.817 C 265.878 200.999,264.392 199.785,260.277 196.366 C 259.907 196.059,259.464 195.681,259.292 195.528 C 253.910 190.710,254.042 190.803,251.634 190.109 L 249.319 189.443 244.468 184.239 C 238.095 177.402,228.944 168.518,220.969 161.423 C 219.587 160.195,217.763 158.555,216.915 157.780 C 216.068 157.005,214.871 155.951,214.256 155.437 C 213.641 154.924,212.540 153.945,211.810 153.263 L 210.482 152.023 210.482 150.110 L 210.482 148.197 208.595 147.507 C 207.558 147.128,206.143 146.612,205.451 146.360 C 204.503 146.016,203.186 144.921,200.114 141.924 C 190.765 132.804,189.184 131.434,186.821 130.407 L 184.626 129.453 184.550 125.172 L 184.473 120.892 182.663 118.444 C 181.667 117.097,180.853 115.872,180.853 115.720 C 180.853 115.568,180.758 115.443,180.643 115.442 C 180.528 115.441,180.120 114.969,179.737 114.394 C 179.354 113.818,178.973 113.284,178.889 113.208 C 178.508 112.855,176.939 110.557,176.939 110.351 C 176.939 110.223,179.005 109.109,181.530 107.874 C 186.302 105.540,186.723 105.177,186.723 103.406 C 186.723 102.730,187.106 102.653,188.974 102.954 L 190.577 103.212 197.029 99.265 C 200.578 97.094,203.550 95.318,203.633 95.318 C 203.717 95.318,204.254 95.023,204.827 94.664 C 209.384 91.804,218.870 87.060,223.340 85.406 C 224.493 84.979,225.688 84.530,225.996 84.408 C 226.946 84.032,229.259 83.389,231.307 82.932 C 232.383 82.691,233.955 82.331,234.801 82.131 C 235.783 81.898,238.318 81.763,241.824 81.757 L 247.310 81.749 248.464 80.707 C 249.816 79.485,249.623 79.505,252.990 80.240 C 255.948 80.885,257.321 81.154,259.958 81.602 C 260.957 81.772,262.341 82.037,263.033 82.191 C 264.499 82.517,269.522 83.483,272.537 84.020 C 276.541 84.732,277.161 84.882,279.385 85.674 C 281.384 86.386,287.008 89.100,287.759 89.714 C 289.335 91.003,292.394 92.167,294.697 92.354 L 297.151 92.553 298.828 91.535 C 300.658 90.423,300.679 90.350,299.932 87.631 C 299.806 87.170,299.489 85.786,299.229 84.556 C 298.528 81.248,298.403 80.938,296.522 77.870 C 293.777 73.393,289.556 67.800,285.966 63.883 C 281.720 59.251,279.635 57.099,278.100 55.765 C 275.505 53.511,274.639 52.693,274.703 52.558 C 274.769 52.419,274.677 52.391,273.888 52.306 C 273.708 52.287,273.637 52.196,273.729 52.104 C 273.959 51.874,272.418 50.403,271.712 50.179 C 271.397 50.079,271.139 49.874,271.139 49.724 C 271.139 49.573,270.573 49.479,269.881 49.515 C 269.189 49.551,268.623 49.655,268.623 49.746 C 268.623 49.837,267.711 50.058,266.597 50.238 C 264.263 50.613,264.068 50.498,263.546 48.428 C 263.381 47.774,263.135 47.240,263.000 47.240 C 262.864 47.240,262.753 47.051,262.753 46.820 C 262.753 46.590,262.620 46.401,262.457 46.401 C 262.294 46.401,262.227 46.294,262.308 46.164 C 262.564 45.749,261.362 44.724,260.619 44.724 C 260.226 44.724,259.539 44.463,259.092 44.145 C 258.644 43.827,257.996 43.600,257.651 43.641 C 257.306 43.682,256.583 43.510,256.045 43.257 C 255.507 43.005,254.469 42.714,253.739 42.611 C 253.008 42.509,252.411 42.313,252.411 42.177 C 252.411 42.040,252.184 41.929,251.908 41.929 C 251.631 41.929,251.265 41.789,251.093 41.617 C 250.899 41.423,249.992 41.346,248.686 41.412 C 247.532 41.470,246.649 41.422,246.721 41.304 C 246.794 41.186,246.209 41.090,245.421 41.090 C 244.633 41.090,243.743 40.959,243.442 40.798 C 243.105 40.618,240.624 40.519,236.962 40.540 C 233.698 40.559,230.713 40.566,230.328 40.556 C 229.777 40.541,229.718 40.594,230.049 40.809 C 230.348 41.003,230.012 41.083,228.877 41.086 C 228.003 41.088,227.214 41.208,227.125 41.351 C 227.037 41.495,226.513 41.539,225.963 41.450 C 225.386 41.356,224.885 41.412,224.780 41.581 C 224.680 41.742,224.158 41.918,223.620 41.971 C 223.082 42.025,222.579 42.148,222.502 42.245 C 222.425 42.342,221.810 42.498,221.136 42.592 C 220.462 42.685,219.767 42.880,219.592 43.026 C 219.416 43.172,218.673 43.363,217.939 43.451 C 217.205 43.539,216.317 43.799,215.967 44.029 C 215.616 44.258,215.245 44.362,215.142 44.259 C 215.039 44.156,214.955 44.213,214.955 44.385 C 214.955 44.558,214.483 44.785,213.906 44.891 C 213.330 44.997,212.792 45.185,212.711 45.308 C 212.630 45.432,212.127 45.609,211.593 45.702 C 211.059 45.795,210.580 45.991,210.529 46.136 C 210.478 46.282,210.161 46.401,209.825 46.401 C 209.489 46.401,208.738 46.725,208.157 47.120 C 207.575 47.515,206.668 47.909,206.141 47.994 C 205.614 48.080,205.242 48.246,205.314 48.363 C 205.387 48.480,205.003 48.659,204.462 48.761 C 203.921 48.862,203.536 49.038,203.607 49.152 C 203.677 49.267,203.469 49.380,203.144 49.404 C 202.819 49.429,202.444 49.644,202.311 49.882 C 202.178 50.120,201.886 50.314,201.663 50.314 C 201.440 50.314,201.256 50.472,201.254 50.664 C 201.251 50.897,201.159 50.874,200.978 50.594 C 200.798 50.314,200.706 50.291,200.703 50.524 C 200.701 50.716,200.510 50.874,200.280 50.874 C 200.049 50.874,199.860 51.013,199.860 51.183 C 199.860 51.353,199.665 51.417,199.426 51.326 C 199.178 51.230,199.065 51.277,199.163 51.436 C 199.257 51.588,199.054 51.712,198.712 51.712 C 198.370 51.712,198.170 51.793,198.269 51.891 C 198.463 52.085,196.713 53.110,196.188 53.110 C 196.013 53.110,195.688 53.330,195.468 53.599 C 195.230 53.889,195.152 53.918,195.275 53.669 C 195.430 53.358,195.339 53.376,194.925 53.739 C 194.617 54.008,194.218 54.228,194.038 54.228 C 193.858 54.228,193.711 54.339,193.711 54.475 C 193.711 54.611,193.491 54.796,193.222 54.886 C 192.662 55.074,191.813 55.605,191.257 56.115 C 191.047 56.307,190.696 56.464,190.476 56.464 C 190.257 56.464,190.077 56.590,190.077 56.744 C 190.077 56.897,189.946 57.023,189.786 57.023 C 189.625 57.023,189.229 57.270,188.905 57.572 C 188.580 57.875,188.208 58.056,188.078 57.975 C 187.947 57.895,187.841 57.953,187.841 58.106 C 187.841 58.258,187.558 58.472,187.212 58.582 C 186.866 58.691,186.418 59.014,186.218 59.299 C 186.017 59.585,185.740 59.818,185.603 59.818 C 185.466 59.818,185.017 60.130,184.605 60.512 C 184.194 60.893,183.747 61.137,183.613 61.054 C 183.478 60.971,183.368 61.037,183.368 61.199 C 183.368 61.362,183.189 61.495,182.969 61.495 C 182.750 61.495,182.323 61.810,182.021 62.194 C 181.718 62.579,181.341 62.893,181.182 62.893 C 181.023 62.893,180.672 63.113,180.403 63.382 C 180.134 63.651,179.811 63.887,179.685 63.906 C 179.558 63.926,179.308 63.957,179.129 63.976 C 178.949 63.995,178.881 64.089,178.976 64.184 C 179.152 64.361,178.893 64.665,177.933 65.409 C 177.451 65.782,177.417 65.782,177.625 65.409 C 177.754 65.178,177.585 65.273,177.249 65.618 C 176.913 65.964,176.510 66.247,176.353 66.247 C 176.196 66.247,176.157 66.393,176.267 66.570 C 176.392 66.772,176.344 66.817,176.137 66.689 C 175.942 66.569,175.499 66.836,175.053 67.345 C 174.638 67.817,174.156 68.204,173.981 68.204 C 173.806 68.204,173.433 68.511,173.151 68.886 C 172.869 69.261,172.551 69.514,172.444 69.448 C 172.337 69.381,171.653 69.924,170.925 70.652 C 170.198 71.381,169.687 71.822,169.791 71.631 C 169.916 71.403,169.837 71.340,169.557 71.448 C 169.324 71.537,169.063 71.833,168.976 72.106 C 168.779 72.728,167.902 73.537,167.334 73.620 C 167.097 73.655,166.589 74.023,166.204 74.438 C 165.820 74.853,165.366 75.192,165.196 75.192 C 165.026 75.192,164.956 75.305,165.041 75.442 C 165.126 75.579,164.877 75.772,164.487 75.869 C 164.097 75.967,163.854 76.169,163.946 76.318 C 164.039 76.468,164.000 76.590,163.861 76.590 C 163.428 76.590,162.403 77.613,162.619 77.829 C 162.731 77.942,162.697 78.003,162.544 77.965 C 161.933 77.814,160.665 78.335,161.050 78.579 C 161.354 78.772,161.346 78.819,161.006 78.826 C 160.776 78.831,160.147 79.209,159.609 79.666 C 159.071 80.123,158.505 80.593,158.351 80.710 C 158.197 80.827,157.678 81.237,157.198 81.621 C 155.652 82.858,154.782 83.438,154.473 83.438 C 154.307 83.438,151.235 79.853,147.646 75.472 C 129.641 53.491,115.321 38.202,102.484 27.254 C 101.582 26.485,100.701 25.730,100.524 25.577 C 98.506 23.817,97.791 23.213,96.845 22.466 C 96.236 21.985,95.045 21.040,94.200 20.366 C 92.078 18.673,88.821 16.268,86.653 14.793 C 85.653 14.113,84.794 13.463,84.743 13.347 C 84.691 13.232,84.501 13.138,84.320 13.138 C 84.140 13.138,83.672 12.855,83.281 12.509 C 82.513 11.830,81.728 11.291,81.062 10.985 C 80.832 10.879,80.477 10.629,80.274 10.428 C 80.070 10.227,79.724 10.063,79.505 10.063 C 79.285 10.063,79.106 9.937,79.106 9.783 C 79.106 9.630,79.011 9.529,78.896 9.559 C 78.558 9.649,76.284 8.505,76.457 8.333 C 76.543 8.246,76.413 8.098,76.168 8.004 C 75.910 7.905,75.794 7.949,75.893 8.109 C 75.987 8.261,75.944 8.386,75.798 8.386 C 75.651 8.386,75.456 8.189,75.364 7.949 C 75.272 7.708,75.083 7.582,74.944 7.668 C 74.805 7.753,74.619 7.634,74.530 7.403 C 74.442 7.172,74.271 6.999,74.152 7.019 C 73.519 7.122,72.944 6.954,73.096 6.709 C 73.191 6.555,73.009 6.429,72.693 6.429 C 72.376 6.429,72.117 6.309,72.117 6.162 C 72.117 6.015,71.677 5.813,71.139 5.712 C 70.601 5.611,70.161 5.416,70.161 5.280 C 70.161 5.143,69.874 5.031,69.524 5.031 C 69.174 5.031,68.626 4.849,68.307 4.625 C 67.988 4.402,67.374 4.155,66.942 4.076 C 66.510 3.998,66.026 3.803,65.866 3.644 C 65.707 3.485,65.350 3.354,65.073 3.354 C 64.797 3.354,64.570 3.236,64.570 3.092 C 64.570 2.948,64.350 2.831,64.081 2.833 C 63.812 2.834,63.340 2.773,63.033 2.697 C 62.725 2.621,62.183 2.549,61.828 2.537 C 61.473 2.525,61.261 2.390,61.356 2.236 C 61.451 2.082,61.364 1.954,61.163 1.950 C 59.867 1.926,57.707 1.566,57.629 1.362 C 57.577 1.228,57.239 1.118,56.877 1.118 C 56.514 1.118,56.143 0.997,56.051 0.849 C 55.960 0.701,55.077 0.586,54.090 0.594 C 53.104 0.601,52.165 0.526,52.004 0.427 C 51.843 0.328,51.712 0.370,51.712 0.520 C 51.712 0.693,51.378 0.703,50.804 0.546 C 49.657 0.233,47.830 0.329,47.892 0.699 M48.562 42.050 C 49.141 42.271,51.314 42.979,53.389 43.623 C 55.465 44.267,57.226 44.874,57.303 44.973 C 57.924 45.767,62.149 48.552,64.367 49.630 C 66.184 50.514,67.354 51.280,67.861 51.920 C 68.280 52.448,68.942 53.278,69.331 53.764 C 69.720 54.250,70.412 55.136,70.868 55.733 C 71.325 56.330,72.682 58.091,73.885 59.646 C 75.088 61.201,77.226 63.977,78.637 65.813 C 80.048 67.650,81.705 69.799,82.320 70.588 C 82.935 71.378,84.096 72.877,84.900 73.921 C 86.607 76.138,87.862 77.486,96.698 86.593 C 103.983 94.101,102.874 92.565,109.837 104.791 L 112.447 109.373 111.807 109.855 C 111.055 110.423,108.645 111.680,107.547 112.077 C 107.124 112.230,106.778 112.484,106.778 112.642 C 106.778 112.799,106.527 112.928,106.219 112.928 C 105.912 112.928,105.660 113.058,105.660 113.216 C 105.660 113.375,105.440 113.589,105.171 113.692 C 104.902 113.795,104.452 114.137,104.172 114.452 C 103.891 114.767,103.740 114.869,103.837 114.678 C 103.952 114.450,103.864 114.389,103.578 114.499 C 103.340 114.590,103.145 114.777,103.145 114.915 C 103.145 115.052,103.014 115.164,102.853 115.164 C 102.693 115.164,102.297 115.411,101.973 115.714 C 101.648 116.016,101.276 116.197,101.146 116.116 C 101.015 116.036,100.908 116.103,100.908 116.266 C 100.908 116.429,100.778 116.562,100.619 116.562 C 100.460 116.562,100.001 116.777,99.599 117.041 C 99.197 117.304,98.669 117.549,98.426 117.585 C 98.183 117.620,97.939 117.783,97.885 117.946 C 97.830 118.109,97.670 118.171,97.528 118.083 C 97.387 117.996,97.195 118.121,97.103 118.361 C 97.011 118.601,96.706 118.798,96.426 118.798 C 96.146 118.798,95.751 118.962,95.548 119.163 C 95.075 119.630,94.161 120.021,93.711 119.948 C 93.519 119.917,93.361 120.023,93.361 120.183 C 93.361 120.344,93.057 120.475,92.686 120.475 C 92.314 120.475,91.968 120.570,91.917 120.685 C 91.804 120.939,89.983 121.882,89.427 121.974 C 89.208 122.010,88.730 122.203,88.366 122.403 C 87.909 122.654,87.766 122.666,87.906 122.439 C 88.041 122.221,87.912 122.234,87.521 122.478 C 87.197 122.681,86.932 122.924,86.932 123.019 C 86.932 123.115,86.632 123.136,86.266 123.066 C 85.900 122.996,85.515 123.076,85.411 123.244 C 85.307 123.412,84.845 123.550,84.383 123.550 C 83.922 123.550,83.612 123.658,83.693 123.790 C 83.775 123.922,83.013 124.107,82.000 124.202 C 80.988 124.296,80.002 124.504,79.811 124.663 C 79.347 125.047,68.829 125.071,68.368 124.688 C 68.181 124.533,67.309 124.321,66.431 124.218 C 65.553 124.115,64.767 123.922,64.686 123.790 C 64.604 123.658,64.238 123.550,63.871 123.550 C 63.505 123.550,63.123 123.416,63.021 123.251 C 62.920 123.087,62.656 123.022,62.434 123.107 C 62.213 123.192,61.817 123.149,61.554 123.011 C 61.291 122.873,59.975 122.362,58.630 121.876 C 53.860 120.152,48.719 117.052,43.948 113.023 C 39.077 108.909,39.182 109.052,35.400 101.374 C 31.701 93.866,31.745 93.970,30.590 90.147 C 28.974 84.802,27.729 79.586,26.836 74.423 C 26.070 69.995,26.476 65.227,28.127 59.259 C 28.233 58.875,29.007 57.240,29.847 55.625 C 30.687 54.011,31.990 51.495,32.741 50.035 C 36.092 43.526,43.120 39.979,48.562 42.050 " stroke="none" fill="#fcfcfc" fill-rule="evenodd"></path><path id="path1" d="M84.416 13.138 C 84.955 13.591,85.494 13.965,85.616 13.969 C 85.738 13.973,85.990 14.104,86.175 14.260 C 86.361 14.415,88.228 15.776,90.325 17.283 C 92.422 18.791,94.560 20.367,95.077 20.787 C 95.594 21.207,96.513 21.953,97.119 22.445 C 97.726 22.938,98.420 23.529,98.662 23.760 C 98.903 23.990,99.663 24.619,100.349 25.157 C 101.036 25.695,101.799 26.324,102.045 26.555 C 102.291 26.785,103.488 27.852,104.705 28.925 C 108.336 32.127,110.541 34.232,116.422 40.112 C 123.345 47.033,124.751 48.524,132.518 57.172 C 135.037 59.978,141.242 67.260,143.117 69.612 C 143.655 70.287,144.480 71.284,144.950 71.828 C 145.420 72.371,146.866 74.137,148.164 75.751 C 149.461 77.365,150.590 78.749,150.673 78.826 C 150.756 78.903,151.614 79.941,152.579 81.132 C 153.544 82.324,154.395 83.298,154.470 83.298 C 154.643 83.298,158.783 80.246,159.279 79.752 C 159.482 79.550,159.758 79.385,159.892 79.385 C 160.315 79.385,159.487 78.099,158.410 77.083 C 157.840 76.545,157.372 75.988,157.372 75.845 C 157.372 75.702,156.869 75.094,156.254 74.493 C 155.639 73.893,155.131 73.270,155.126 73.109 C 155.120 72.948,153.926 71.558,152.474 70.021 C 151.021 68.484,149.831 67.108,149.829 66.964 C 149.826 66.722,148.139 64.888,142.948 59.482 C 141.811 58.297,140.881 57.196,140.881 57.036 C 140.881 56.875,140.722 56.744,140.527 56.744 C 140.333 56.744,140.050 56.461,139.899 56.115 C 139.747 55.769,139.340 55.362,138.994 55.210 C 138.648 55.058,138.365 54.816,138.365 54.672 C 138.365 54.276,135.202 51.154,134.801 51.153 C 134.609 51.153,134.451 50.986,134.451 50.782 C 134.451 50.333,133.287 49.196,132.826 49.196 C 132.644 49.196,132.495 48.819,132.495 48.358 C 132.495 47.799,132.355 47.519,132.075 47.519 C 131.845 47.519,131.656 47.361,131.656 47.167 C 131.656 46.767,123.171 38.532,122.470 38.252 C 122.218 38.151,121.452 37.491,120.766 36.784 C 120.081 36.078,119.421 35.500,119.299 35.500 C 119.177 35.500,118.574 34.997,117.959 34.382 C 117.345 33.767,116.716 33.263,116.562 33.263 C 116.408 33.263,116.282 33.075,116.282 32.844 C 116.282 32.614,116.117 32.425,115.915 32.425 C 115.713 32.425,115.187 32.048,114.745 31.586 C 114.303 31.125,113.825 30.748,113.682 30.748 C 113.540 30.748,112.697 30.119,111.810 29.350 C 110.923 28.581,110.105 27.952,109.992 27.952 C 109.810 27.952,109.160 27.450,107.180 25.783 C 106.414 25.138,105.659 24.657,104.892 24.325 C 104.546 24.175,104.263 23.953,104.263 23.830 C 104.263 23.708,103.791 23.363,103.215 23.063 C 102.638 22.764,101.753 22.170,101.248 21.742 C 100.743 21.314,100.161 20.964,99.955 20.964 C 99.748 20.964,99.407 20.756,99.196 20.502 C 98.985 20.247,98.435 19.868,97.973 19.659 C 97.053 19.242,96.446 18.885,95.178 18.014 C 93.982 17.192,86.297 13.418,85.806 13.411 C 85.580 13.408,85.080 13.159,84.696 12.858 C 83.581 11.986,83.337 12.229,84.416 13.138 M42.317 42.061 C 38.838 42.912,35.114 45.922,33.384 49.280 C 32.814 50.387,31.939 52.048,31.440 52.970 C 30.940 53.892,30.137 55.394,29.654 56.307 C 25.708 63.773,25.795 73.747,29.923 87.072 C 30.066 87.533,30.567 89.231,31.036 90.846 C 31.641 92.927,32.955 95.934,35.556 101.188 L 39.222 108.595 41.623 110.731 C 46.840 115.369,49.900 117.514,54.647 119.859 C 58.414 121.721,59.406 122.152,59.914 122.152 C 60.151 122.152,60.422 122.278,60.517 122.432 C 60.612 122.586,60.924 122.711,61.209 122.711 C 61.495 122.711,61.785 122.869,61.853 123.061 C 61.922 123.253,62.080 123.315,62.206 123.198 C 62.487 122.935,61.048 121.397,60.098 120.945 C 59.714 120.762,59.278 120.338,59.131 120.002 C 58.983 119.666,58.638 119.333,58.363 119.261 C 58.089 119.189,57.780 118.899,57.677 118.615 C 57.574 118.331,57.164 117.658,56.767 117.120 C 55.852 115.879,55.385 115.136,55.184 114.605 C 55.097 114.375,54.909 113.997,54.765 113.767 C 54.621 113.536,54.421 113.159,54.320 112.928 C 54.219 112.697,53.906 112.175,53.623 111.767 C 53.341 111.359,53.110 110.880,53.110 110.703 C 53.110 110.138,51.988 107.897,51.705 107.897 C 51.555 107.897,51.433 107.527,51.433 107.074 C 51.433 106.622,51.316 106.181,51.175 106.093 C 51.033 106.005,50.834 105.558,50.733 105.098 C 50.632 104.639,50.450 104.263,50.328 104.263 C 50.206 104.263,50.025 103.754,49.926 103.132 C 49.826 102.511,49.628 101.788,49.485 101.525 C 49.342 101.263,49.148 100.454,49.055 99.727 C 48.961 99.000,48.766 98.333,48.621 98.243 C 48.476 98.153,48.358 97.773,48.358 97.398 C 48.358 97.023,48.242 96.716,48.101 96.716 C 47.959 96.716,47.764 95.867,47.668 94.829 C 47.572 93.791,47.374 92.726,47.229 92.461 C 47.084 92.196,46.883 91.092,46.782 90.006 C 46.681 88.921,46.491 87.966,46.360 87.885 C 46.047 87.692,46.049 80.224,46.362 80.224 C 46.494 80.224,46.675 79.523,46.763 78.667 C 46.851 77.811,47.046 76.962,47.196 76.780 C 47.346 76.599,47.556 75.987,47.662 75.420 C 47.767 74.854,48.086 74.180,48.370 73.924 C 48.653 73.667,48.970 73.071,49.074 72.599 C 49.177 72.127,49.498 71.353,49.786 70.881 C 50.074 70.408,50.463 69.706,50.651 69.322 C 50.975 68.657,51.720 67.623,52.770 66.379 C 53.297 65.754,55.043 64.850,55.721 64.850 C 55.958 64.850,56.229 64.724,56.324 64.570 C 56.535 64.229,58.141 64.195,58.141 64.531 C 58.141 64.663,58.802 64.844,59.609 64.932 C 61.092 65.095,62.607 65.653,62.611 66.038 C 62.613 66.153,62.866 66.247,63.174 66.247 C 63.482 66.247,64.203 66.499,64.777 66.806 C 65.350 67.114,65.965 67.365,66.143 67.365 C 66.321 67.365,66.539 67.554,66.628 67.785 C 66.716 68.015,66.966 68.204,67.183 68.204 C 67.399 68.204,67.728 68.386,67.913 68.609 C 68.098 68.832,68.837 69.294,69.554 69.635 C 70.272 69.976,71.300 70.590,71.838 71.000 C 72.376 71.410,73.026 71.821,73.282 71.913 C 73.537 72.006,73.915 72.436,74.121 72.868 C 74.327 73.301,74.778 73.779,75.124 73.931 C 75.469 74.082,75.751 74.314,75.751 74.445 C 75.751 74.576,76.442 75.458,77.287 76.405 C 78.132 77.352,78.824 78.262,78.825 78.428 C 78.825 78.593,79.140 79.024,79.525 79.385 C 79.909 79.746,80.224 80.148,80.224 80.277 C 80.224 80.407,80.664 80.941,81.202 81.463 C 81.740 81.986,82.180 82.526,82.180 82.664 C 82.180 82.802,82.558 83.276,83.019 83.718 C 83.480 84.160,83.857 84.635,83.857 84.775 C 83.857 84.915,84.549 85.817,85.395 86.780 C 86.240 87.744,86.932 88.627,86.932 88.743 C 86.932 88.927,87.760 89.997,88.990 91.405 C 89.192 91.635,89.436 92.044,89.533 92.313 C 89.631 92.582,89.888 92.802,90.105 92.802 C 90.323 92.802,90.580 93.022,90.678 93.291 C 91.048 94.317,91.655 95.097,93.457 96.863 C 94.481 97.867,95.318 98.769,95.318 98.869 C 95.318 99.215,100.478 104.263,100.832 104.263 C 101.028 104.263,101.188 104.422,101.188 104.618 C 101.188 104.813,102.393 106.165,103.867 107.623 C 105.340 109.080,106.659 110.559,106.798 110.909 C 107.131 111.750,107.709 111.940,108.553 111.484 C 112.614 109.292,112.441 109.599,110.971 107.198 C 110.356 106.193,109.853 105.308,109.853 105.231 C 109.853 105.153,109.560 104.621,109.202 104.048 C 108.843 103.474,108.099 102.187,107.548 101.188 C 103.507 93.859,103.693 94.101,96.115 86.308 C 85.874 75.779,87.758 77.979,76.881 63.841 C 73.582 59.553,70.808 55.982,70.716 55.905 C 70.623 55.828,69.752 54.713,68.780 53.427 C 67.048 51.137,66.951 51.060,64.060 49.700 C 62.272 48.859,60.252 47.626,58.937 46.574 C 57.351 45.305,56.292 44.695,55.007 44.311 C 54.041 44.022,51.740 43.306,49.895 42.719 C 46.304 41.577,44.819 41.448,42.317 42.061 M263.752 49.123 C 263.917 49.240,264.133 49.556,264.232 49.825 C 264.426 50.350,265.528 50.431,267.086 50.035 L 267.925 49.822 267.039 49.788 C 266.553 49.770,266.112 49.649,266.061 49.518 C 266.010 49.388,265.402 49.198,264.710 49.095 C 264.018 48.993,263.587 49.005,263.752 49.123 M275.611 53.207 C 275.611 53.411,276.640 54.410,277.848 55.380 C 280.458 57.476,287.858 65.484,290.992 69.602 C 291.518 70.294,292.022 70.922,292.111 70.999 C 292.199 71.076,292.706 71.768,293.236 72.537 C 293.766 73.305,294.273 73.997,294.363 74.074 C 294.452 74.151,295.421 75.681,296.515 77.475 C 298.528 80.777,298.923 81.816,299.789 86.094 C 300.054 87.400,300.383 88.834,300.520 89.280 C 300.886 90.472,300.921 90.420,298.892 91.701 L 297.015 92.887 294.489 92.553 C 291.823 92.200,291.293 91.984,286.620 89.354 C 281.375 86.400,278.098 85.212,272.257 84.148 C 271.258 83.966,269.560 83.646,268.484 83.438 C 267.407 83.230,265.395 82.853,264.011 82.601 C 262.628 82.349,259.039 81.648,256.037 81.043 C 249.373 79.701,249.687 79.701,248.377 81.042 L 247.305 82.141 243.359 81.986 C 230.650 81.488,218.759 86.074,195.381 100.486 C 190.907 103.244,190.446 103.464,189.532 103.286 C 186.823 102.757,187.055 102.705,186.859 103.884 C 186.760 104.477,186.629 105.120,186.569 105.314 C 186.508 105.507,184.376 106.696,181.830 107.955 C 179.218 109.248,177.254 110.381,177.322 110.558 C 177.388 110.730,179.059 113.063,181.034 115.743 L 184.626 120.615 184.626 124.893 L 184.626 129.171 186.855 130.157 C 189.380 131.273,190.359 132.111,198.983 140.526 L 204.395 145.808 206.670 146.589 C 211.074 148.103,210.762 147.838,210.762 150.052 L 210.762 151.985 212.102 153.211 C 212.839 153.886,214.003 154.928,214.688 155.527 C 215.372 156.127,217.128 157.695,218.588 159.012 C 220.049 160.329,221.676 161.788,222.203 162.254 C 223.493 163.395,226.293 165.974,229.191 168.693 C 232.961 172.230,243.620 182.935,246.656 186.233 L 249.422 189.238 251.833 189.962 C 253.988 190.608,254.439 190.869,256.070 192.408 C 257.074 193.355,258.454 194.593,259.136 195.159 C 259.819 195.725,260.733 196.503,261.168 196.888 C 262.118 197.728,263.238 198.636,266.387 201.118 C 267.694 202.148,269.250 203.387,269.844 203.871 C 270.439 204.356,271.131 204.867,271.382 205.008 C 271.633 205.148,271.901 205.343,271.978 205.441 C 272.055 205.539,272.746 206.053,273.515 206.583 C 274.284 207.113,274.976 207.617,275.052 207.701 C 275.129 207.786,275.821 208.289,276.590 208.819 C 277.358 209.350,278.029 209.878,278.081 209.993 C 278.132 210.108,278.291 210.203,278.434 210.203 C 278.665 210.203,281.630 212.225,282.518 212.987 C 282.704 213.147,282.982 213.277,283.136 213.277 C 283.290 213.277,284.133 214.252,285.010 215.444 C 287.028 218.187,286.693 218.020,290.217 218.025 C 292.031 218.028,293.222 218.140,293.222 218.309 C 293.222 218.463,293.490 218.588,293.818 218.588 C 294.390 218.588,294.385 218.565,293.704 218.029 C 293.313 217.722,292.881 217.470,292.743 217.470 C 292.605 217.470,292.066 217.030,291.544 216.492 C 291.023 215.954,290.440 215.514,290.249 215.514 C 290.058 215.514,289.489 215.136,288.984 214.675 C 288.479 214.214,287.956 213.836,287.821 213.836 C 287.687 213.836,286.789 213.145,285.826 212.299 C 284.863 211.454,283.932 210.762,283.757 210.762 C 283.581 210.762,283.438 210.597,283.438 210.395 C 283.438 210.193,282.998 209.855,282.460 209.644 C 281.922 209.432,281.481 209.095,281.481 208.893 C 281.481 208.691,281.306 208.526,281.092 208.526 C 280.878 208.526,280.630 208.337,280.542 208.106 C 280.453 207.876,280.220 207.683,280.023 207.678 C 279.826 207.674,278.973 206.982,278.127 206.141 C 277.282 205.300,276.484 204.612,276.356 204.612 C 276.227 204.612,275.096 203.669,273.843 202.516 C 272.590 201.363,271.426 200.419,271.256 200.419 C 271.085 200.419,270.719 200.168,270.440 199.860 C 270.162 199.553,269.765 199.301,269.558 199.301 C 269.352 199.301,269.182 199.175,269.182 199.021 C 269.182 198.867,268.679 198.522,268.064 198.256 C 267.449 197.990,266.946 197.676,266.946 197.558 C 266.946 197.441,266.758 197.345,266.527 197.345 C 266.296 197.345,266.108 197.156,266.108 196.925 C 266.108 196.695,265.941 196.506,265.737 196.506 C 265.533 196.506,265.062 196.178,264.689 195.777 C 264.316 195.377,263.726 194.939,263.377 194.804 C 263.029 194.669,262.622 194.240,262.474 193.850 C 262.326 193.461,261.888 193.021,261.500 192.874 C 261.113 192.727,260.797 192.445,260.797 192.247 C 260.797 191.782,250.421 181.412,249.955 181.412 C 249.761 181.412,249.481 181.095,249.334 180.708 C 249.187 180.321,248.760 179.887,248.386 179.745 C 248.011 179.603,247.537 179.137,247.332 178.710 C 247.128 178.283,246.690 177.799,246.360 177.635 C 246.030 177.470,243.661 175.328,241.096 172.875 C 238.531 170.421,236.285 168.365,236.106 168.306 C 235.926 168.247,234.952 167.430,233.941 166.489 C 232.929 165.549,231.772 164.528,231.368 164.221 C 230.964 163.913,230.628 163.526,230.621 163.361 C 230.614 163.196,230.294 162.765,229.909 162.404 C 229.525 162.043,229.210 161.610,229.210 161.442 C 229.210 161.274,228.644 160.489,227.952 159.699 C 227.261 158.908,226.695 158.150,226.695 158.014 C 226.695 157.708,224.381 155.416,224.072 155.416 C 223.948 155.416,223.452 155.133,222.970 154.787 C 221.792 153.941,221.062 153.503,220.475 153.291 C 220.206 153.194,219.986 153.003,219.986 152.867 C 219.986 152.732,219.826 152.621,219.631 152.621 C 219.436 152.621,218.086 151.426,216.632 149.965 C 215.177 148.505,213.824 147.310,213.625 147.310 C 213.426 147.310,213.143 146.992,212.995 146.604 C 212.848 146.215,212.505 145.814,212.233 145.711 C 211.607 145.474,211.200 145.067,210.963 144.440 C 210.860 144.169,210.476 143.833,210.108 143.693 C 209.741 143.553,209.372 143.179,209.289 142.860 C 209.206 142.542,208.906 142.193,208.622 142.086 C 208.338 141.979,207.751 141.538,207.316 141.106 C 206.881 140.675,206.284 140.321,205.988 140.321 C 205.693 140.321,205.451 140.155,205.451 139.951 C 205.451 139.747,205.136 139.285,204.752 138.924 C 204.368 138.563,204.053 138.101,204.053 137.897 C 204.053 137.693,203.942 137.526,203.806 137.526 C 203.670 137.526,203.470 136.814,203.361 135.944 C 203.252 135.074,203.049 134.130,202.909 133.847 C 202.770 133.565,202.546 133.109,202.412 132.835 C 202.277 132.561,202.079 131.933,201.971 131.441 C 201.862 130.948,201.658 130.473,201.516 130.385 C 200.637 129.842,201.535 126.066,202.544 126.066 C 202.721 126.066,203.023 125.877,203.215 125.646 C 203.406 125.416,203.779 125.227,204.044 125.227 C 204.309 125.227,204.747 124.983,205.017 124.684 C 205.287 124.385,205.873 124.061,206.318 123.963 C 206.764 123.865,207.128 123.669,207.128 123.528 C 207.128 123.386,207.425 123.270,207.789 123.270 C 208.153 123.270,208.770 123.019,209.161 122.711 C 209.552 122.404,209.989 122.152,210.134 122.152 C 210.278 122.152,210.623 121.901,210.901 121.593 C 211.180 121.286,211.620 121.034,211.880 121.034 C 212.140 121.034,212.580 120.783,212.858 120.475 C 213.136 120.168,213.523 119.916,213.717 119.916 C 213.911 119.916,214.111 119.816,214.163 119.693 C 214.214 119.571,214.822 119.188,215.514 118.843 C 217.609 117.798,219.002 116.993,219.102 116.769 C 219.154 116.652,219.845 116.239,220.639 115.851 C 222.558 114.914,224.285 113.950,224.461 113.719 C 224.540 113.616,224.948 113.445,225.370 113.339 C 225.791 113.233,226.136 113.063,226.136 112.961 C 226.136 112.772,227.127 112.234,228.989 111.413 C 229.559 111.162,230.095 110.844,230.180 110.706 C 230.265 110.568,230.742 110.367,231.240 110.259 C 231.738 110.151,232.467 109.836,232.861 109.558 C 233.255 109.279,233.915 108.967,234.329 108.863 C 234.742 108.759,235.080 108.578,235.080 108.461 C 235.080 108.344,235.599 108.165,236.234 108.063 C 236.868 107.962,237.651 107.694,237.973 107.468 C 238.295 107.243,238.846 107.058,239.196 107.058 C 239.546 107.058,239.832 106.963,239.832 106.847 C 239.832 106.500,241.269 105.998,242.837 105.797 C 243.644 105.693,244.305 105.505,244.305 105.380 C 244.305 105.254,245.376 105.062,246.685 104.953 C 247.994 104.844,249.133 104.644,249.217 104.509 C 249.301 104.374,251.098 104.263,253.210 104.263 C 255.903 104.263,257.155 104.159,257.399 103.914 C 257.897 103.417,269.005 103.415,269.503 103.913 C 269.696 104.106,270.450 104.263,271.178 104.263 C 271.907 104.263,272.571 104.372,272.654 104.506 C 272.736 104.639,273.719 104.838,274.837 104.949 C 275.955 105.059,277.008 105.264,277.178 105.405 C 277.347 105.545,278.452 105.742,279.633 105.842 C 280.814 105.942,281.846 106.130,281.927 106.261 C 282.007 106.392,282.436 106.499,282.879 106.499 C 283.322 106.499,283.752 106.608,283.835 106.742 C 283.917 106.875,284.611 107.067,285.377 107.169 C 286.143 107.271,286.836 107.462,286.918 107.593 C 286.999 107.725,287.502 107.915,288.035 108.015 C 288.569 108.115,289.356 108.380,289.786 108.604 C 290.215 108.828,290.713 109.012,290.892 109.013 C 291.072 109.014,291.260 109.111,291.311 109.229 C 291.424 109.489,294.986 111.251,295.399 111.251 C 295.559 111.251,295.733 111.345,295.784 111.461 C 296.005 111.957,299.246 113.304,300.514 113.426 C 301.275 113.499,301.966 113.669,302.049 113.803 C 302.132 113.937,302.625 114.046,303.145 114.046 C 303.665 114.046,304.168 114.172,304.263 114.326 C 304.358 114.479,305.301 114.605,306.359 114.605 C 307.417 114.605,308.361 114.479,308.456 114.326 C 308.551 114.172,309.117 114.046,309.713 114.046 C 310.310 114.046,310.866 113.937,310.948 113.804 C 311.030 113.671,311.559 113.488,312.123 113.396 C 312.687 113.305,313.440 112.956,313.796 112.621 C 314.153 112.286,314.732 111.870,315.084 111.696 C 315.436 111.523,315.847 111.100,315.999 110.757 C 316.151 110.414,316.403 110.133,316.560 110.133 C 316.845 110.133,317.314 109.206,317.692 107.897 C 317.802 107.512,318.110 106.883,318.375 106.499 C 318.640 106.115,318.940 105.454,319.042 105.031 C 319.217 104.306,320.056 103.918,320.056 104.562 C 320.056 104.727,320.267 105.073,320.526 105.331 C 320.966 105.770,320.982 105.756,320.777 105.101 C 320.656 104.717,320.440 103.396,320.297 102.166 C 320.153 100.936,319.930 99.736,319.801 99.500 C 319.671 99.263,319.473 98.399,319.361 97.580 C 319.154 96.078,318.555 95.038,317.897 95.038 C 317.701 95.038,317.540 94.818,317.539 94.549 C 317.539 94.280,317.162 93.305,316.702 92.383 C 316.242 91.461,315.865 90.501,315.864 90.251 C 315.864 90.001,315.668 89.634,315.430 89.437 C 315.192 89.239,314.668 88.406,314.267 87.585 C 313.865 86.765,313.445 86.094,313.335 86.094 C 313.224 86.094,313.059 85.874,312.969 85.604 C 312.733 84.902,312.184 84.094,311.461 83.384 C 311.115 83.044,310.832 82.656,310.832 82.522 C 310.832 82.388,310.517 81.982,310.133 81.621 C 309.748 81.260,309.433 80.829,309.433 80.664 C 309.432 80.499,308.740 79.588,307.895 78.641 C 307.050 77.694,306.359 76.810,306.359 76.677 C 306.359 76.544,305.479 75.561,304.403 74.493 C 303.326 73.425,302.446 72.461,302.446 72.351 C 302.446 72.053,299.775 69.322,299.483 69.321 C 299.344 69.321,297.916 68.000,296.307 66.386 C 294.699 64.773,293.221 63.452,293.023 63.452 C 292.825 63.452,292.662 63.263,292.662 63.033 C 292.662 62.802,292.520 62.614,292.345 62.614 C 292.171 62.614,291.756 62.331,291.424 61.985 C 290.326 60.840,288.632 59.665,286.932 58.866 C 286.010 58.433,285.040 57.969,284.778 57.836 C 284.516 57.702,283.793 57.511,283.171 57.412 C 282.549 57.312,282.041 57.121,282.041 56.987 C 282.041 56.853,281.736 56.744,281.363 56.744 C 280.991 56.744,280.312 56.429,279.855 56.045 C 279.399 55.660,278.883 55.346,278.710 55.346 C 278.536 55.346,277.848 54.843,277.181 54.228 C 276.099 53.230,275.611 52.913,275.611 53.207 M336.192 77.073 C 336.267 77.268,336.432 77.428,336.559 77.428 C 336.686 77.428,336.878 77.711,336.986 78.057 C 337.094 78.403,337.271 78.749,337.379 78.826 C 337.488 78.903,338.533 80.538,339.703 82.460 C 341.764 85.847,341.919 86.022,344.757 88.173 C 347.954 90.595,347.604 90.053,348.915 94.619 C 349.091 95.234,349.881 96.869,350.669 98.253 C 353.351 102.962,358.384 114.042,361.202 121.444 C 361.673 122.679,362.275 124.193,362.542 124.808 C 363.086 126.063,366.946 136.313,368.647 141.020 C 369.259 142.711,370.282 145.507,370.922 147.233 L 372.086 150.370 372.059 156.502 C 372.034 161.866,372.558 172.247,373.051 176.169 C 373.215 177.474,373.185 177.539,371.048 180.472 L 368.878 183.449 369.159 189.329 C 369.487 196.194,369.634 195.538,366.101 202.935 C 350.529 235.537,311.332 255.145,273.090 249.465 C 266.441 248.477,265.656 248.277,262.806 246.847 L 260.041 245.459 258.376 245.905 C 256.632 246.373,255.619 246.147,251.712 244.421 C 251.251 244.217,250.244 243.807,249.474 243.510 C 248.705 243.212,247.092 242.515,245.890 241.960 C 244.688 241.405,243.644 240.950,243.570 240.950 C 242.811 240.950,229.715 233.904,224.618 230.753 C 219.525 227.606,210.998 221.497,207.220 218.291 C 206.478 217.660,205.178 216.558,204.333 215.840 C 198.359 210.774,190.591 202.928,184.638 195.947 C 182.344 193.256,179.767 190.252,178.912 189.271 C 178.058 188.289,176.541 186.515,175.542 185.329 C 174.542 184.143,171.135 180.340,167.971 176.878 C 164.806 173.417,160.605 168.461,158.634 165.865 C 154.863 160.898,154.047 159.969,147.742 153.459 C 145.582 151.230,142.129 147.582,140.069 145.353 C 138.008 143.124,135.983 140.944,135.568 140.508 L 134.814 139.717 127.575 143.352 C 119.372 147.471,114.820 149.643,110.971 151.273 C 109.511 151.891,107.939 152.564,107.477 152.769 C 106.703 153.112,103.514 154.384,101.188 155.278 C 82.010 162.646,71.295 163.454,58.193 158.520 C 45.174 153.617,43.741 152.914,39.972 149.575 C 39.434 149.099,38.086 147.985,36.977 147.101 C 35.867 146.216,33.603 144.060,31.945 142.308 C 30.287 140.557,27.264 137.457,25.227 135.420 C 23.190 133.382,21.523 131.641,21.523 131.551 C 21.523 131.460,20.957 130.207,20.266 128.766 C 19.574 127.324,19.008 125.949,19.008 125.709 C 19.008 125.470,18.913 125.232,18.798 125.181 C 18.511 125.053,17.610 123.068,17.610 122.562 C 17.610 122.337,17.484 122.152,17.331 122.152 C 17.177 122.152,17.051 121.956,17.051 121.715 C 17.051 121.475,16.737 120.590,16.352 119.750 C 15.968 118.910,15.649 118.132,15.644 118.021 C 15.639 117.910,15.391 117.317,15.094 116.702 C 14.797 116.087,14.550 115.363,14.545 115.094 C 14.540 114.825,14.410 114.605,14.256 114.605 C 14.102 114.605,13.976 114.298,13.976 113.923 C 13.976 113.548,13.860 113.169,13.718 113.081 C 13.576 112.993,13.376 112.537,13.273 112.067 C 13.169 111.598,12.909 110.876,12.694 110.463 C 12.479 110.051,12.302 109.430,12.301 109.085 C 12.300 108.739,12.189 108.456,12.055 108.456 C 11.921 108.456,11.727 107.927,11.624 107.282 C 11.520 106.636,11.329 105.975,11.199 105.814 C 11.068 105.653,10.890 105.269,10.802 104.962 C 10.714 104.654,10.709 104.780,10.792 105.241 C 10.874 105.702,11.079 106.866,11.247 107.827 C 11.415 108.788,11.649 109.574,11.766 109.574 C 11.883 109.574,12.066 110.266,12.171 111.111 C 12.277 111.957,12.475 112.648,12.611 112.648 C 12.747 112.648,12.858 113.018,12.858 113.471 C 12.858 113.923,12.977 114.366,13.122 114.455 C 13.266 114.545,13.472 115.200,13.579 115.911 C 13.685 116.622,13.943 117.531,14.152 117.931 C 14.361 118.331,14.533 119.004,14.534 119.427 C 14.535 119.850,14.661 120.196,14.815 120.196 C 14.969 120.196,15.094 120.503,15.094 120.878 C 15.094 121.253,15.206 121.629,15.342 121.713 C 15.478 121.798,15.672 122.303,15.772 122.836 C 15.872 123.370,16.137 124.157,16.361 124.586 C 16.585 125.016,16.769 125.713,16.770 126.136 C 16.771 126.558,16.897 126.904,17.051 126.904 C 17.205 126.904,17.331 127.168,17.331 127.490 C 17.331 127.812,17.537 128.473,17.790 128.958 C 18.554 130.425,18.649 130.661,18.854 131.592 C 18.962 132.085,19.167 132.560,19.309 132.648 C 19.451 132.736,19.567 133.001,19.567 133.238 C 19.567 133.641,20.128 135.094,20.708 136.195 C 20.849 136.462,20.965 136.839,20.966 137.033 C 20.967 137.228,21.722 138.879,22.643 140.702 C 23.565 142.526,24.319 144.311,24.319 144.669 C 24.319 145.027,24.436 145.393,24.580 145.482 C 24.724 145.571,25.022 145.987,25.241 146.407 C 26.127 148.101,27.313 150.046,27.666 150.384 C 27.868 150.577,28.475 151.555,28.707 152.061 C 28.978 152.652,29.536 153.180,29.889 153.180 C 30.054 153.180,30.189 153.341,30.189 153.538 C 30.189 153.735,30.897 154.584,31.763 155.425 C 32.630 156.265,33.651 157.362,34.033 157.862 C 34.415 158.361,34.880 158.770,35.066 158.770 C 35.253 158.770,35.584 159.104,35.802 159.511 C 36.297 160.437,44.696 168.553,45.158 168.553 C 45.345 168.553,45.563 168.804,45.643 169.109 C 45.723 169.415,46.083 169.778,46.444 169.916 C 46.805 170.054,47.340 170.432,47.632 170.758 C 47.925 171.083,48.338 171.349,48.550 171.349 C 48.761 171.349,49.007 171.537,49.095 171.768 C 49.184 171.999,49.412 172.187,49.602 172.187 C 49.793 172.187,50.176 172.439,50.455 172.747 C 50.959 173.304,53.645 174.703,54.211 174.703 C 54.374 174.703,54.508 174.797,54.510 174.913 C 54.512 175.137,55.843 175.821,56.276 175.821 C 56.493 175.821,59.112 176.984,60.666 177.770 C 60.902 177.889,61.498 178.075,61.991 178.183 C 62.483 178.291,62.958 178.496,63.046 178.638 C 63.134 178.780,63.418 178.897,63.678 178.898 C 63.938 178.899,64.474 179.068,64.868 179.274 C 65.263 179.480,65.955 179.737,66.406 179.847 C 67.533 180.120,68.763 180.670,68.763 180.901 C 68.763 181.006,69.455 181.178,70.300 181.284 C 71.146 181.390,71.838 181.578,71.838 181.703 C 71.838 181.828,72.530 182.017,73.375 182.123 C 74.221 182.228,74.913 182.426,74.913 182.562 C 74.913 182.698,75.265 182.809,75.695 182.809 C 76.126 182.809,76.635 182.966,76.827 183.159 C 77.321 183.652,92.920 183.641,93.414 183.147 C 93.600 182.961,94.160 182.809,94.659 182.809 C 95.157 182.809,95.632 182.700,95.715 182.566 C 95.797 182.433,96.748 182.237,97.827 182.130 C 98.907 182.024,99.790 181.837,99.790 181.715 C 99.790 181.592,100.639 181.413,101.676 181.316 C 102.713 181.220,103.604 181.013,103.656 180.857 C 103.708 180.701,104.047 180.573,104.409 180.573 C 104.772 180.573,105.142 180.455,105.231 180.310 C 105.321 180.165,105.988 179.960,106.715 179.855 C 107.442 179.750,108.162 179.565,108.316 179.445 C 108.470 179.324,109.068 179.137,109.647 179.029 C 110.225 178.921,110.760 178.732,110.836 178.609 C 110.912 178.486,111.476 178.301,112.089 178.197 C 112.703 178.093,113.276 177.894,113.362 177.753 C 113.449 177.613,113.827 177.498,114.202 177.498 C 114.578 177.498,114.885 177.372,114.885 177.219 C 114.885 177.065,115.042 176.938,115.234 176.937 C 115.426 176.937,115.921 176.760,116.333 176.545 C 116.746 176.329,117.492 176.064,117.992 175.954 C 118.491 175.844,119.294 175.533,119.776 175.262 C 120.258 174.991,121.053 174.682,121.542 174.574 C 122.032 174.467,122.432 174.263,122.432 174.122 C 122.432 173.980,122.722 173.864,123.077 173.864 C 123.432 173.864,123.967 173.680,124.265 173.454 C 124.564 173.228,125.013 173.040,125.263 173.035 C 125.513 173.030,125.874 172.837,126.066 172.607 C 126.257 172.376,126.713 172.187,127.078 172.187 C 127.444 172.187,127.743 172.061,127.743 171.908 C 127.743 171.754,128.042 171.628,128.407 171.628 C 128.773 171.628,129.225 171.444,129.411 171.220 C 129.597 170.995,130.022 170.732,130.354 170.636 C 131.581 170.279,132.495 169.807,132.495 169.530 C 132.495 169.245,134.462 168.274,135.039 168.274 C 135.207 168.274,135.738 167.991,136.221 167.645 C 137.405 166.797,138.107 166.442,139.082 166.200 C 139.533 166.088,140.195 165.723,140.552 165.389 C 141.086 164.891,141.540 164.782,143.077 164.781 C 145.127 164.780,145.290 164.872,147.696 167.375 C 148.329 168.033,150.891 170.631,153.389 173.148 C 155.887 175.664,157.932 177.834,157.932 177.969 C 157.932 178.104,158.686 178.961,159.609 179.874 C 160.531 180.787,161.286 181.682,161.286 181.863 C 161.286 182.044,161.726 182.579,162.264 183.051 C 162.802 183.524,163.242 184.018,163.242 184.150 C 163.242 184.281,163.550 184.678,163.927 185.032 C 164.303 185.385,164.691 186.036,164.788 186.478 C 164.885 186.920,165.143 187.282,165.361 187.282 C 165.580 187.282,165.759 187.376,165.761 187.491 C 165.762 187.607,166.202 188.164,166.739 188.730 C 167.276 189.297,167.718 189.863,167.721 189.988 C 167.725 190.114,168.416 190.905,169.259 191.747 C 170.101 192.589,170.790 193.392,170.790 193.531 C 170.790 193.670,171.670 194.648,172.746 195.706 C 173.823 196.763,174.703 197.755,174.703 197.911 C 174.703 198.067,175.017 198.338,175.402 198.513 C 175.786 198.689,176.101 198.973,176.101 199.144 C 176.101 199.316,176.918 200.267,177.918 201.258 C 178.917 202.248,179.734 203.170,179.734 203.306 C 179.734 203.442,180.783 204.703,182.064 206.109 C 183.345 207.515,184.478 208.897,184.581 209.181 C 184.684 209.465,185.020 209.762,185.326 209.843 C 185.633 209.923,185.884 210.137,185.884 210.318 C 185.884 210.500,186.387 211.140,187.002 211.740 C 187.617 212.341,188.120 212.969,188.120 213.138 C 188.120 213.306,188.492 213.752,188.947 214.129 C 189.402 214.506,189.779 214.945,189.786 215.104 C 189.792 215.263,190.489 216.076,191.335 216.911 C 192.180 217.746,192.872 218.591,192.872 218.788 C 192.872 218.986,193.061 219.147,193.291 219.147 C 193.522 219.147,193.711 219.317,193.711 219.524 C 193.711 219.970,206.109 232.387,206.678 232.510 C 206.894 232.556,207.134 232.839,207.212 233.137 C 207.290 233.436,207.586 233.763,207.870 233.865 C 208.154 233.967,209.203 234.797,210.203 235.709 C 213.272 238.510,213.513 238.714,213.766 238.714 C 213.901 238.714,214.373 239.092,214.815 239.553 C 215.257 240.014,215.737 240.391,215.882 240.391 C 216.028 240.391,216.562 240.832,217.069 241.370 C 217.577 241.908,218.103 242.348,218.238 242.348 C 218.373 242.348,218.845 242.725,219.287 243.187 C 219.729 243.648,220.206 244.025,220.348 244.025 C 220.489 244.025,221.081 244.403,221.663 244.864 C 222.246 245.325,222.836 245.702,222.976 245.702 C 223.116 245.702,223.657 246.143,224.179 246.681 C 224.700 247.219,225.285 247.659,225.478 247.659 C 225.671 247.659,225.929 247.816,226.052 248.008 C 226.297 248.391,227.072 248.917,227.968 249.309 C 228.284 249.448,228.913 249.859,229.366 250.224 C 229.818 250.589,230.566 251.073,231.027 251.299 C 231.488 251.526,231.929 251.774,232.006 251.851 C 232.264 252.111,233.258 252.690,233.962 252.990 C 234.346 253.154,234.881 253.489,235.152 253.733 C 235.743 254.269,236.431 254.674,238.341 255.610 C 239.134 256.000,239.826 256.416,239.878 256.536 C 239.995 256.806,243.558 258.560,243.990 258.560 C 244.163 258.560,244.305 258.686,244.305 258.840 C 244.305 258.994,244.565 259.119,244.882 259.119 C 245.200 259.119,245.860 259.419,246.350 259.786 C 246.839 260.152,247.554 260.547,247.939 260.662 C 248.323 260.778,248.700 260.952,248.777 261.051 C 248.993 261.327,251.865 262.753,252.205 262.753 C 252.474 262.753,255.402 264.049,256.670 264.729 C 256.937 264.872,257.314 264.990,257.508 264.991 C 257.703 264.991,258.616 265.368,259.539 265.828 C 260.461 266.288,261.492 266.665,261.828 266.666 C 262.165 266.666,262.511 266.780,262.597 266.919 C 262.682 267.057,263.507 267.258,264.430 267.365 C 265.353 267.473,266.108 267.666,266.108 267.795 C 266.108 267.925,266.988 268.117,268.064 268.223 C 269.140 268.329,270.021 268.509,270.021 268.623 C 270.021 268.738,270.645 268.914,271.407 269.015 C 272.169 269.116,272.869 269.321,272.961 269.470 C 273.053 269.619,273.428 269.741,273.795 269.741 C 274.161 269.741,274.533 269.858,274.621 270.001 C 274.709 270.144,275.503 270.339,276.385 270.434 C 277.266 270.530,278.196 270.721,278.450 270.859 C 278.705 270.998,279.872 271.198,281.044 271.304 C 282.215 271.410,283.241 271.605,283.323 271.737 C 283.404 271.870,284.211 271.978,285.115 271.978 C 286.020 271.978,286.837 272.103,286.932 272.257 C 287.043 272.436,290.988 272.537,297.850 272.537 C 304.827 272.537,308.595 272.439,308.595 272.257 C 308.595 272.100,309.382 271.978,310.396 271.978 C 311.386 271.978,312.265 271.867,312.348 271.731 C 312.432 271.596,313.468 271.394,314.651 271.284 C 315.833 271.173,316.998 270.975,317.240 270.844 C 317.482 270.714,318.529 270.528,319.567 270.431 C 320.604 270.335,321.454 270.140,321.454 269.999 C 321.454 269.857,321.823 269.741,322.276 269.741 C 322.728 269.741,323.169 269.627,323.255 269.486 C 323.342 269.346,323.947 269.150,324.600 269.051 C 325.252 268.952,326.038 268.762,326.345 268.628 C 326.653 268.494,327.376 268.306,327.952 268.212 C 328.529 268.117,329.001 267.919,329.001 267.772 C 329.001 267.625,329.291 267.505,329.646 267.505 C 330.001 267.505,330.536 267.321,330.834 267.095 C 331.132 266.869,331.715 266.680,332.129 266.676 C 332.543 266.671,332.959 266.541,333.054 266.387 C 333.149 266.233,333.439 266.103,333.699 266.098 C 333.959 266.093,334.675 265.846,335.290 265.549 C 335.905 265.252,336.567 265.004,336.761 264.999 C 337.086 264.990,337.712 264.714,338.784 264.106 C 339.015 263.975,339.392 263.795,339.623 263.705 C 340.340 263.427,346.702 260.222,347.659 259.656 C 348.159 259.361,348.976 258.867,349.476 258.559 C 349.976 258.251,350.772 257.818,351.245 257.597 C 351.719 257.376,352.269 256.999,352.467 256.760 C 352.666 256.520,352.996 256.324,353.200 256.324 C 353.404 256.324,353.672 256.151,353.795 255.939 C 353.918 255.727,354.476 255.310,355.036 255.012 C 355.596 254.714,356.682 253.944,357.451 253.301 C 358.219 252.658,358.966 252.131,359.110 252.131 C 359.254 252.131,359.667 251.817,360.028 251.433 C 360.389 251.048,360.804 250.734,360.951 250.734 C 361.098 250.734,361.872 250.042,362.672 249.196 C 363.471 248.351,364.245 247.659,364.390 247.659 C 364.704 247.659,371.209 241.151,371.209 240.837 C 371.209 240.718,371.744 240.072,372.397 239.400 C 373.829 237.928,375.122 236.339,375.122 236.052 C 375.122 235.936,375.625 235.296,376.240 234.629 C 376.855 233.962,377.358 233.246,377.358 233.039 C 377.358 232.832,377.673 232.367,378.057 232.006 C 378.442 231.645,378.756 231.187,378.756 230.988 C 378.756 230.790,379.112 230.214,379.547 229.709 C 379.982 229.204,380.621 228.194,380.969 227.465 C 381.316 226.735,381.703 226.075,381.829 225.997 C 382.310 225.700,386.583 216.701,386.583 215.985 C 386.583 215.572,386.709 215.234,386.862 215.234 C 387.016 215.234,387.142 214.927,387.142 214.552 C 387.142 214.177,387.256 213.799,387.395 213.713 C 387.535 213.627,387.737 212.896,387.846 212.089 C 387.954 211.282,388.140 210.496,388.259 210.342 C 388.378 210.189,388.530 207.862,388.596 205.171 C 388.664 202.377,388.848 200.040,389.023 199.720 C 389.545 198.772,390.217 197.136,390.217 196.813 C 390.217 196.644,390.326 196.506,390.460 196.506 C 390.595 196.506,390.789 195.978,390.892 195.332 C 390.995 194.686,391.231 193.974,391.417 193.750 C 391.803 193.282,391.744 167.974,391.356 167.719 C 391.235 167.640,391.048 166.257,390.939 164.646 C 390.830 163.035,390.638 161.651,390.513 161.571 C 390.387 161.491,390.194 160.765,390.084 159.958 C 389.975 159.151,389.771 158.491,389.631 158.491 C 389.492 158.491,389.374 158.208,389.369 157.862 C 389.364 157.516,389.176 156.989,388.950 156.690 C 388.724 156.392,388.539 155.802,388.539 155.379 C 388.539 154.956,388.414 154.532,388.260 154.437 C 388.106 154.342,387.980 154.071,387.980 153.834 C 387.980 153.362,387.144 151.446,386.841 151.223 C 386.736 151.146,386.561 150.423,386.451 149.616 C 386.341 148.809,386.147 148.148,386.020 148.148 C 385.893 148.148,385.700 147.743,385.591 147.249 C 385.483 146.754,385.294 146.157,385.173 145.921 C 384.600 144.807,384.067 143.410,384.067 143.021 C 384.067 142.784,383.955 142.522,383.819 142.437 C 383.682 142.353,383.487 141.936,383.386 141.512 C 383.285 141.088,382.906 140.112,382.544 139.343 C 381.358 136.823,380.992 135.911,380.992 135.474 C 380.992 135.237,380.876 134.972,380.734 134.884 C 380.592 134.796,380.388 134.317,380.280 133.819 C 380.172 133.321,379.853 132.586,379.570 132.186 C 379.287 131.785,378.972 130.939,378.871 130.304 C 378.769 129.670,378.513 129.007,378.302 128.832 C 378.091 128.657,377.914 128.308,377.909 128.058 C 377.904 127.808,377.715 127.359,377.489 127.060 C 377.264 126.762,377.079 126.253,377.079 125.928 C 377.079 125.604,376.964 125.219,376.823 125.073 C 376.390 124.625,375.122 122.093,375.122 121.676 C 375.122 121.460,374.745 120.605,374.284 119.776 C 373.823 118.947,373.445 118.011,373.445 117.695 C 373.445 117.379,373.333 117.121,373.196 117.121 C 373.059 117.121,372.862 116.783,372.758 116.369 C 372.654 115.956,372.335 115.288,372.048 114.885 C 371.760 114.482,371.441 113.814,371.337 113.400 C 371.233 112.987,371.046 112.648,370.921 112.648 C 370.796 112.648,370.611 112.271,370.510 111.810 C 370.409 111.349,370.213 110.971,370.074 110.971 C 369.935 110.971,369.738 110.625,369.636 110.203 C 369.534 109.780,369.225 109.112,368.951 108.718 C 368.676 108.324,368.366 107.664,368.262 107.251 C 368.158 106.837,367.961 106.499,367.824 106.499 C 367.687 106.499,367.575 106.241,367.575 105.925 C 367.575 105.364,366.026 102.306,365.599 102.024 C 365.480 101.945,365.300 101.550,365.199 101.145 C 365.094 100.727,363.394 98.772,361.263 96.619 C 359.200 94.535,357.512 92.656,357.512 92.445 C 357.512 92.234,357.198 91.766,356.813 91.405 C 356.429 91.044,356.115 90.638,356.115 90.504 C 356.115 90.370,355.832 89.982,355.486 89.642 C 354.790 88.960,354.295 88.230,353.888 87.290 C 353.740 86.949,353.363 86.510,353.050 86.315 C 352.737 86.119,352.481 85.823,352.481 85.656 C 352.481 85.489,352.166 85.057,351.782 84.696 C 351.398 84.335,351.083 83.873,351.083 83.669 C 351.083 83.465,350.894 83.298,350.664 83.298 C 350.433 83.298,350.245 83.136,350.245 82.938 C 350.245 82.541,347.714 79.944,347.326 79.944 C 347.192 79.944,346.694 79.654,346.218 79.299 C 345.107 78.470,343.460 77.708,342.781 77.708 C 342.489 77.708,342.131 77.591,341.985 77.449 C 341.531 77.007,336.029 76.650,336.192 77.073 " stroke="none" fill="#cecdce" fill-rule="evenodd"></path><path id="path2" d="M89.588 79.665 C 90.188 80.280,90.742 80.783,90.819 80.783 C 90.896 80.783,90.468 80.280,89.867 79.665 C 89.267 79.050,88.713 78.546,88.636 78.546 C 88.559 78.546,88.987 79.050,89.588 79.665 M241.024 81.822 C 241.449 81.886,242.078 81.884,242.422 81.818 C 242.766 81.752,242.418 81.699,241.649 81.701 C 240.881 81.703,240.599 81.758,241.024 81.822 M184.566 122.013 C 184.568 122.781,184.623 123.063,184.687 122.638 C 184.751 122.213,184.749 121.584,184.683 121.240 C 184.617 120.896,184.564 121.244,184.566 122.013 M192.034 134.032 C 192.555 134.570,193.045 135.010,193.122 135.010 C 193.198 135.010,192.835 134.570,192.313 134.032 C 191.792 133.494,191.302 133.054,191.225 133.054 C 191.148 133.054,191.512 133.494,192.034 134.032 M145.073 150.751 C 145.073 150.799,145.482 151.208,145.982 151.660 L 146.890 152.481 146.069 151.572 C 145.304 150.726,145.073 150.535,145.073 150.751 M71.628 161.769 C 72.205 161.829,73.148 161.829,73.725 161.769 C 74.301 161.709,73.829 161.659,72.676 161.659 C 71.523 161.659,71.052 161.709,71.628 161.769 M285.185 250.381 C 286.069 250.437,287.516 250.437,288.400 250.381 C 289.284 250.326,288.560 250.280,286.792 250.280 C 285.024 250.280,284.301 250.326,285.185 250.381 " stroke="none" fill="#dcdcdc" fill-rule="evenodd"></path><path id="path3" d="" stroke="none" fill="#e4e4e4" fill-rule="evenodd"></path><path id="path4" d="M122.013 46.122 C 122.613 46.737,123.167 47.240,123.244 47.240 C 123.321 47.240,122.893 46.737,122.292 46.122 C 121.692 45.507,121.137 45.003,121.061 45.003 C 120.984 45.003,121.412 45.507,122.013 46.122 M128.581 53.197 C 128.581 53.245,128.990 53.654,129.490 54.106 L 130.398 54.927 129.577 54.018 C 128.812 53.171,128.581 52.981,128.581 53.197 M87.759 77.498 C 88.917 78.732,89.168 78.954,89.168 78.744 C 89.168 78.700,88.571 78.102,87.841 77.417 L 86.513 76.171 87.759 77.498 M248.340 80.853 L 247.519 81.761 248.428 80.940 C 248.927 80.488,249.336 80.080,249.336 80.032 C 249.336 79.816,249.105 80.006,248.340 80.853 M93.920 83.997 C 94.911 84.997,95.784 85.814,95.861 85.814 C 95.938 85.814,95.190 84.997,94.200 83.997 C 93.209 82.998,92.336 82.180,92.259 82.180 C 92.182 82.180,92.930 82.998,93.920 83.997 M101.747 92.051 C 101.747 92.099,102.156 92.508,102.655 92.960 L 103.564 93.781 102.743 92.872 C 101.978 92.025,101.747 91.835,101.747 92.051 M190.636 132.914 C 191.471 133.760,192.217 134.451,192.294 134.451 C 192.371 134.451,191.751 133.760,190.915 132.914 C 190.080 132.068,189.334 131.377,189.257 131.377 C 189.181 131.377,189.801 132.068,190.636 132.914 M27.673 137.666 C 28.194 138.204,28.684 138.644,28.761 138.644 C 28.838 138.644,28.474 138.204,27.952 137.666 C 27.431 137.128,26.941 136.688,26.864 136.688 C 26.788 136.688,27.151 137.128,27.673 137.666 M195.807 137.806 C 196.408 138.421,196.962 138.924,197.039 138.924 C 197.116 138.924,196.687 138.421,196.087 137.806 C 195.486 137.191,194.932 136.688,194.855 136.688 C 194.778 136.688,195.207 137.191,195.807 137.806 M138.085 143.204 C 138.085 143.252,138.494 143.661,138.994 144.113 L 139.902 144.934 139.081 144.025 C 138.316 143.178,138.085 142.988,138.085 143.204 M142.558 147.956 C 142.558 148.004,142.966 148.413,143.466 148.865 L 144.375 149.686 143.554 148.777 C 142.788 147.930,142.558 147.740,142.558 147.956 M150.943 156.674 C 151.778 157.519,152.525 158.211,152.601 158.211 C 152.678 158.211,152.058 157.519,151.223 156.674 C 150.388 155.828,149.642 155.136,149.565 155.136 C 149.488 155.136,150.108 155.828,150.943 156.674 M75.681 161.483 C 76.027 161.550,76.593 161.550,76.939 161.483 C 77.285 161.416,77.002 161.362,76.310 161.362 C 75.618 161.362,75.335 161.416,75.681 161.483 M225.577 165.566 C 225.577 165.614,225.985 166.023,226.485 166.475 L 227.393 167.296 226.572 166.387 C 225.807 165.540,225.577 165.350,225.577 165.566 M372.112 167.435 C 372.112 167.973,372.170 168.194,372.240 167.925 C 372.311 167.655,372.311 167.215,372.240 166.946 C 372.170 166.677,372.112 166.897,372.112 167.435 M230.608 170.370 C 231.129 170.908,231.619 171.349,231.696 171.349 C 231.773 171.349,231.409 170.908,230.887 170.370 C 230.366 169.832,229.876 169.392,229.799 169.392 C 229.723 169.392,230.086 169.832,230.608 170.370 M372.398 171.488 C 372.401 172.103,372.458 172.322,372.525 171.974 C 372.592 171.627,372.589 171.124,372.519 170.856 C 372.449 170.589,372.394 170.874,372.398 171.488 M243.606 183.368 C 244.206 183.983,244.761 184.486,244.837 184.486 C 244.914 184.486,244.486 183.983,243.885 183.368 C 243.285 182.753,242.731 182.250,242.654 182.250 C 242.577 182.250,243.005 182.753,243.606 183.368 M247.368 187.352 C 248.053 188.082,248.651 188.679,248.696 188.679 C 248.905 188.679,248.683 188.428,247.449 187.270 L 246.122 186.024 247.368 187.352 M369.038 191.754 C 369.038 192.292,369.095 192.512,369.165 192.243 C 369.236 191.974,369.236 191.534,369.165 191.265 C 369.095 190.996,369.038 191.216,369.038 191.754 M254.927 191.562 C 254.927 191.610,255.335 192.019,255.835 192.470 L 256.744 193.291 255.923 192.383 C 255.157 191.536,254.927 191.346,254.927 191.562 M188.539 200.419 C 189.140 201.034,189.694 201.537,189.771 201.537 C 189.848 201.537,189.419 201.034,188.819 200.419 C 188.219 199.804,187.664 199.301,187.587 199.301 C 187.511 199.301,187.939 199.804,188.539 200.419 M194.410 206.569 C 196.095 208.260,197.538 209.644,197.615 209.644 C 197.691 209.644,196.375 208.260,194.689 206.569 C 193.003 204.878,191.561 203.494,191.484 203.494 C 191.407 203.494,192.724 204.878,194.410 206.569 M199.860 211.688 C 199.860 211.736,200.269 212.145,200.769 212.596 L 201.677 213.417 200.856 212.509 C 200.091 211.662,199.860 211.472,199.860 211.688 M295.528 249.808 C 295.797 249.879,296.237 249.879,296.506 249.808 C 296.775 249.738,296.555 249.681,296.017 249.681 C 295.479 249.681,295.259 249.738,295.528 249.808 " stroke="none" fill="#ececec" fill-rule="evenodd"></path></g></svg>